<?xml version="1.0" encoding="utf-8" standalone="no"?>
<!DOCTYPE svg PUBLIC "-//W3C//DTD SVG 1.1//EN"
  "http://www.w3.org/Graphics/SVG/1.1/DTD/svg11.dtd">
<svg xmlns:xlink="http://www.w3.org/1999/xlink" width="720pt" height="720pt" viewBox="0 0 720 720" xmlns="http://www.w3.org/2000/svg" version="1.1">
 <metadata>
  <rdf:RDF xmlns:dc="http://purl.org/dc/elements/1.1/" xmlns:cc="http://creativecommons.org/ns#" xmlns:rdf="http://www.w3.org/1999/02/22-rdf-syntax-ns#">
   <cc:Work>
    <dc:type rdf:resource="http://purl.org/dc/dcmitype/StillImage"/>
    <dc:date>2022-06-30T13:52:42.351907</dc:date>
    <dc:format>image/svg+xml</dc:format>
    <dc:creator>
     <cc:Agent>
      <dc:title>Matplotlib v3.5.2, https://matplotlib.org/</dc:title>
     </cc:Agent>
    </dc:creator>
   </cc:Work>
  </rdf:RDF>
 </metadata>
 <defs>
  <style type="text/css">*{stroke-linejoin: round; stroke-linecap: butt}</style>
 </defs>
 <g id="figure_1">
  <g id="patch_1">
   <path d="M 0 720 
L 720 720 
L 720 0 
L 0 0 
L 0 720 
z
" style="fill: none"/>
  </g>
  <g id="axes_1">
   <g id="patch_2">
    <path d="M 65.772624 411.121621 
C 61.478856 394.420325 59.306287 377.244411 59.306287 360 
C 59.306287 342.755589 61.478856 325.579675 65.772624 308.878379 
C 56.521264 324.324224 51.633917 341.995506 51.633917 360 
C 51.633917 378.004494 56.521264 395.675776 65.772624 411.121621 
" clip-path="url(#p78d07af972)" style="fill: #daa520; opacity: 0.7"/>
   </g>
   <g id="patch_3">
    <path d="M 466.421245 322.203144 
C 468.755615 334.666686 469.930333 347.319732 469.930333 360 
C 469.930333 372.680268 468.755615 385.333314 466.421245 397.796856 
C 470.796951 409.076849 477.098418 419.511786 485.04432 428.635803 
C 492.990221 437.759821 502.460525 445.435089 513.032433 451.318949 
C 523.60434 457.202809 535.11815 461.206378 547.059834 463.150918 
C 559.001518 465.095459 571.190681 464.951596 583.083143 462.725752 
C 594.975606 460.499908 606.391717 456.225707 616.82181 450.09397 
C 627.251903 443.962232 636.538418 436.065586 644.266763 426.756573 
C 651.995108 417.447559 658.048536 406.866803 662.156795 395.486678 
C 666.265054 384.106552 668.366083 372.098969 668.366083 360 
C 668.366083 347.901031 666.265054 335.893448 662.156795 324.513322 
C 658.048536 313.133197 651.995108 302.552441 644.266763 293.243427 
C 636.538418 283.934414 627.251903 276.037768 616.82181 269.90603 
C 606.391717 263.774293 594.975606 259.500092 583.083143 257.274248 
C 571.190681 255.048404 559.001518 254.904541 547.059834 256.849082 
C 535.11815 258.793622 523.60434 262.797191 513.032433 268.681051 
C 502.460525 274.564911 492.990221 282.240179 485.04432 291.364197 
C 477.098418 300.488214 470.796951 310.923151 466.421245 322.203144 
" clip-path="url(#p78d07af972)" style="fill: #1e90ff; opacity: 0.7"/>
   </g>
   <g id="patch_4">
    <path d="M 65.772624 411.121621 
C 77.40404 456.363864 104.134827 496.309313 141.520944 524.316966 
C 178.907062 552.324619 224.755121 566.751308 271.4428 565.19857 
C 318.13048 563.645832 362.918682 546.204764 398.361288 515.774975 
C 433.803894 485.345186 457.821538 443.711946 466.421245 397.796856 
C 461.745778 385.74412 459.347024 372.927816 459.347024 360 
C 459.347024 347.072184 461.745778 334.25588 466.421245 322.203144 
C 457.821538 276.288054 433.803894 234.654814 398.361288 204.225025 
C 362.918682 173.795236 318.13048 156.354168 271.4428 154.80143 
C 224.755121 153.248692 178.907062 167.675381 141.520944 195.683034 
C 104.134827 223.690687 77.40404 263.636136 65.772624 308.878379 
C 71.327122 299.604726 78.356084 291.298024 86.58267 284.285436 
C 94.809255 277.272849 104.124025 271.647667 114.160111 267.631441 
C 124.196197 263.615215 134.820087 261.261374 145.613353 260.662625 
C 156.406619 260.063876 167.225676 261.228185 177.644409 264.109694 
C 188.063142 266.991203 197.942948 271.55158 206.894706 277.61121 
C 215.846464 283.670841 223.751086 291.149113 230.297245 299.751491 
C 236.843403 308.353869 241.944013 317.965913 245.398183 328.209047 
C 248.852353 338.452181 250.614133 349.190139 250.614133 360 
C 250.614133 370.809861 248.852353 381.547819 245.398183 391.790953 
C 241.944013 402.034087 236.843403 411.646131 230.297245 420.248509 
C 223.751086 428.850887 215.846464 436.329159 206.894706 442.38879 
C 197.942948 448.44842 188.063142 453.008797 177.644409 455.890306 
C 167.225676 458.771815 156.406619 459.936124 145.613353 459.337375 
C 134.820087 458.738626 124.196197 456.384785 114.160111 452.368559 
C 104.124025 448.352333 94.809255 442.727151 86.58267 435.714564 
C 78.356084 428.701976 71.327122 420.395274 65.772624 411.121621 
" clip-path="url(#p78d07af972)" style="fill: #808080; opacity: 0.7"/>
   </g>
   <g id="patch_5">
    <path d="M 65.772624 411.121621 
C 71.327122 420.395274 78.356084 428.701976 86.58267 435.714564 
C 94.809255 442.727151 104.124025 448.352333 114.160111 452.368559 
C 124.196197 456.384785 134.820087 458.738626 145.613353 459.337375 
C 156.406619 459.936124 167.225676 458.771815 177.644409 455.890306 
C 188.063142 453.008797 197.942948 448.44842 206.894706 442.38879 
C 215.846464 436.329159 223.751086 428.850887 230.297245 420.248509 
C 236.843403 411.646131 241.944013 402.034087 245.398183 391.790953 
C 248.852353 381.547819 250.614133 370.809861 250.614133 360 
C 250.614133 349.190139 248.852353 338.452181 245.398183 328.209047 
C 241.944013 317.965913 236.843403 308.353869 230.297245 299.751491 
C 223.751086 291.149113 215.846464 283.670841 206.894706 277.61121 
C 197.942948 271.55158 188.063142 266.991203 177.644409 264.109694 
C 167.225676 261.228185 156.406619 260.063876 145.613353 260.662625 
C 134.820087 261.261374 124.196197 263.615215 114.160111 267.631441 
C 104.124025 271.647667 94.809255 277.272849 86.58267 284.285436 
C 78.356084 291.298024 71.327122 299.604726 65.772624 308.878379 
C 61.478856 325.579675 59.306287 342.755589 59.306287 360 
C 59.306287 377.244411 61.478856 394.420325 65.772624 411.121621 
" clip-path="url(#p78d07af972)" style="fill: #f2cd70; opacity: 0.7"/>
   </g>
   <g id="patch_6">
    <path d="M 466.421245 322.203144 
C 461.745778 334.25588 459.347024 347.072184 459.347024 360 
C 459.347024 372.927816 461.745778 385.74412 466.421245 397.796856 
C 468.755615 385.333314 469.930333 372.680268 469.930333 360 
C 469.930333 347.319732 468.755615 334.666686 466.421245 322.203144 
" clip-path="url(#p78d07af972)" style="fill: #6fbeff; opacity: 0.7"/>
   </g>
   <g id="text_1">
    <!-- 1 -->
    <g transform="translate(52.288852 362.759375)scale(0.1 -0.1)">
     <defs>
      <path id="DejaVuSans-31" d="M 794 531 
L 1825 531 
L 1825 4091 
L 703 3866 
L 703 4441 
L 1819 4666 
L 2450 4666 
L 2450 531 
L 3481 531 
L 3481 0 
L 794 0 
L 794 531 
z
" transform="scale(0.015625)"/>
     </defs>
     <use xlink:href="#DejaVuSans-31"/>
    </g>
   </g>
   <g id="text_2">
    <!-- 63 -->
    <g transform="translate(562.785708 362.759375)scale(0.1 -0.1)">
     <defs>
      <path id="DejaVuSans-36" d="M 2113 2584 
Q 1688 2584 1439 2293 
Q 1191 2003 1191 1497 
Q 1191 994 1439 701 
Q 1688 409 2113 409 
Q 2538 409 2786 701 
Q 3034 994 3034 1497 
Q 3034 2003 2786 2293 
Q 2538 2584 2113 2584 
z
M 3366 4563 
L 3366 3988 
Q 3128 4100 2886 4159 
Q 2644 4219 2406 4219 
Q 1781 4219 1451 3797 
Q 1122 3375 1075 2522 
Q 1259 2794 1537 2939 
Q 1816 3084 2150 3084 
Q 2853 3084 3261 2657 
Q 3669 2231 3669 1497 
Q 3669 778 3244 343 
Q 2819 -91 2113 -91 
Q 1303 -91 875 529 
Q 447 1150 447 2328 
Q 447 3434 972 4092 
Q 1497 4750 2381 4750 
Q 2619 4750 2861 4703 
Q 3103 4656 3366 4563 
z
" transform="scale(0.015625)"/>
      <path id="DejaVuSans-33" d="M 2597 2516 
Q 3050 2419 3304 2112 
Q 3559 1806 3559 1356 
Q 3559 666 3084 287 
Q 2609 -91 1734 -91 
Q 1441 -91 1130 -33 
Q 819 25 488 141 
L 488 750 
Q 750 597 1062 519 
Q 1375 441 1716 441 
Q 2309 441 2620 675 
Q 2931 909 2931 1356 
Q 2931 1769 2642 2001 
Q 2353 2234 1838 2234 
L 1294 2234 
L 1294 2753 
L 1863 2753 
Q 2328 2753 2575 2939 
Q 2822 3125 2822 3475 
Q 2822 3834 2567 4026 
Q 2313 4219 1838 4219 
Q 1578 4219 1281 4162 
Q 984 4106 628 3988 
L 628 4550 
Q 988 4650 1302 4700 
Q 1616 4750 1894 4750 
Q 2613 4750 3031 4423 
Q 3450 4097 3450 3541 
Q 3450 3153 3228 2886 
Q 3006 2619 2597 2516 
z
" transform="scale(0.015625)"/>
     </defs>
     <use xlink:href="#DejaVuSans-36"/>
     <use xlink:href="#DejaVuSans-33" x="63.623047"/>
    </g>
   </g>
   <g id="text_3">
    <!-- 189 -->
    <g transform="translate(264.601008 362.759375)scale(0.1 -0.1)">
     <defs>
      <path id="DejaVuSans-38" d="M 2034 2216 
Q 1584 2216 1326 1975 
Q 1069 1734 1069 1313 
Q 1069 891 1326 650 
Q 1584 409 2034 409 
Q 2484 409 2743 651 
Q 3003 894 3003 1313 
Q 3003 1734 2745 1975 
Q 2488 2216 2034 2216 
z
M 1403 2484 
Q 997 2584 770 2862 
Q 544 3141 544 3541 
Q 544 4100 942 4425 
Q 1341 4750 2034 4750 
Q 2731 4750 3128 4425 
Q 3525 4100 3525 3541 
Q 3525 3141 3298 2862 
Q 3072 2584 2669 2484 
Q 3125 2378 3379 2068 
Q 3634 1759 3634 1313 
Q 3634 634 3220 271 
Q 2806 -91 2034 -91 
Q 1263 -91 848 271 
Q 434 634 434 1313 
Q 434 1759 690 2068 
Q 947 2378 1403 2484 
z
M 1172 3481 
Q 1172 3119 1398 2916 
Q 1625 2713 2034 2713 
Q 2441 2713 2670 2916 
Q 2900 3119 2900 3481 
Q 2900 3844 2670 4047 
Q 2441 4250 2034 4250 
Q 1625 4250 1398 4047 
Q 1172 3844 1172 3481 
z
" transform="scale(0.015625)"/>
      <path id="DejaVuSans-39" d="M 703 97 
L 703 672 
Q 941 559 1184 500 
Q 1428 441 1663 441 
Q 2288 441 2617 861 
Q 2947 1281 2994 2138 
Q 2813 1869 2534 1725 
Q 2256 1581 1919 1581 
Q 1219 1581 811 2004 
Q 403 2428 403 3163 
Q 403 3881 828 4315 
Q 1253 4750 1959 4750 
Q 2769 4750 3195 4129 
Q 3622 3509 3622 2328 
Q 3622 1225 3098 567 
Q 2575 -91 1691 -91 
Q 1453 -91 1209 -44 
Q 966 3 703 97 
z
M 1959 2075 
Q 2384 2075 2632 2365 
Q 2881 2656 2881 3163 
Q 2881 3666 2632 3958 
Q 2384 4250 1959 4250 
Q 1534 4250 1286 3958 
Q 1038 3666 1038 3163 
Q 1038 2656 1286 2365 
Q 1534 2075 1959 2075 
z
" transform="scale(0.015625)"/>
     </defs>
     <use xlink:href="#DejaVuSans-31"/>
     <use xlink:href="#DejaVuSans-38" x="63.623047"/>
     <use xlink:href="#DejaVuSans-39" x="127.246094"/>
    </g>
   </g>
   <g id="text_4">
    <!-- 57 -->
    <g transform="translate(148.59771 362.759375)scale(0.1 -0.1)">
     <defs>
      <path id="DejaVuSans-35" d="M 691 4666 
L 3169 4666 
L 3169 4134 
L 1269 4134 
L 1269 2991 
Q 1406 3038 1543 3061 
Q 1681 3084 1819 3084 
Q 2600 3084 3056 2656 
Q 3513 2228 3513 1497 
Q 3513 744 3044 326 
Q 2575 -91 1722 -91 
Q 1428 -91 1123 -41 
Q 819 9 494 109 
L 494 744 
Q 775 591 1075 516 
Q 1375 441 1709 441 
Q 2250 441 2565 725 
Q 2881 1009 2881 1497 
Q 2881 1984 2565 2268 
Q 2250 2553 1709 2553 
Q 1456 2553 1204 2497 
Q 953 2441 691 2322 
L 691 4666 
z
" transform="scale(0.015625)"/>
      <path id="DejaVuSans-37" d="M 525 4666 
L 3525 4666 
L 3525 4397 
L 1831 0 
L 1172 0 
L 2766 4134 
L 525 4134 
L 525 4666 
z
" transform="scale(0.015625)"/>
     </defs>
     <use xlink:href="#DejaVuSans-35"/>
     <use xlink:href="#DejaVuSans-37" x="63.623047"/>
    </g>
   </g>
   <g id="text_5">
    <!-- 1 -->
    <g transform="translate(461.457429 362.759375)scale(0.1 -0.1)">
     <use xlink:href="#DejaVuSans-31"/>
    </g>
   </g>
   <g id="text_6">
    <!-- KEGG -->
    <g transform="translate(134.099962 482.251955)scale(0.12 -0.12)">
     <defs>
      <path id="DejaVuSans-4b" d="M 628 4666 
L 1259 4666 
L 1259 2694 
L 3353 4666 
L 4166 4666 
L 1850 2491 
L 4331 0 
L 3500 0 
L 1259 2247 
L 1259 0 
L 628 0 
L 628 4666 
z
" transform="scale(0.015625)"/>
      <path id="DejaVuSans-45" d="M 628 4666 
L 3578 4666 
L 3578 4134 
L 1259 4134 
L 1259 2753 
L 3481 2753 
L 3481 2222 
L 1259 2222 
L 1259 531 
L 3634 531 
L 3634 0 
L 628 0 
L 628 4666 
z
" transform="scale(0.015625)"/>
      <path id="DejaVuSans-47" d="M 3809 666 
L 3809 1919 
L 2778 1919 
L 2778 2438 
L 4434 2438 
L 4434 434 
Q 4069 175 3628 42 
Q 3188 -91 2688 -91 
Q 1594 -91 976 548 
Q 359 1188 359 2328 
Q 359 3472 976 4111 
Q 1594 4750 2688 4750 
Q 3144 4750 3555 4637 
Q 3966 4525 4313 4306 
L 4313 3634 
Q 3963 3931 3569 4081 
Q 3175 4231 2741 4231 
Q 1884 4231 1454 3753 
Q 1025 3275 1025 2328 
Q 1025 1384 1454 906 
Q 1884 428 2741 428 
Q 3075 428 3337 486 
Q 3600 544 3809 666 
z
" transform="scale(0.015625)"/>
     </defs>
     <use xlink:href="#DejaVuSans-4b"/>
     <use xlink:href="#DejaVuSans-45" x="65.576172"/>
     <use xlink:href="#DejaVuSans-47" x="128.759766"/>
     <use xlink:href="#DejaVuSans-47" x="206.25"/>
    </g>
   </g>
   <g id="text_7">
    <!-- BioCyc Tier 2 -->
    <g transform="translate(524.428116 487.271377)scale(0.12 -0.12)">
     <defs>
      <path id="DejaVuSans-42" d="M 1259 2228 
L 1259 519 
L 2272 519 
Q 2781 519 3026 730 
Q 3272 941 3272 1375 
Q 3272 1813 3026 2020 
Q 2781 2228 2272 2228 
L 1259 2228 
z
M 1259 4147 
L 1259 2741 
L 2194 2741 
Q 2656 2741 2882 2914 
Q 3109 3088 3109 3444 
Q 3109 3797 2882 3972 
Q 2656 4147 2194 4147 
L 1259 4147 
z
M 628 4666 
L 2241 4666 
Q 2963 4666 3353 4366 
Q 3744 4066 3744 3513 
Q 3744 3084 3544 2831 
Q 3344 2578 2956 2516 
Q 3422 2416 3680 2098 
Q 3938 1781 3938 1306 
Q 3938 681 3513 340 
Q 3088 0 2303 0 
L 628 0 
L 628 4666 
z
" transform="scale(0.015625)"/>
      <path id="DejaVuSans-69" d="M 603 3500 
L 1178 3500 
L 1178 0 
L 603 0 
L 603 3500 
z
M 603 4863 
L 1178 4863 
L 1178 4134 
L 603 4134 
L 603 4863 
z
" transform="scale(0.015625)"/>
      <path id="DejaVuSans-6f" d="M 1959 3097 
Q 1497 3097 1228 2736 
Q 959 2375 959 1747 
Q 959 1119 1226 758 
Q 1494 397 1959 397 
Q 2419 397 2687 759 
Q 2956 1122 2956 1747 
Q 2956 2369 2687 2733 
Q 2419 3097 1959 3097 
z
M 1959 3584 
Q 2709 3584 3137 3096 
Q 3566 2609 3566 1747 
Q 3566 888 3137 398 
Q 2709 -91 1959 -91 
Q 1206 -91 779 398 
Q 353 888 353 1747 
Q 353 2609 779 3096 
Q 1206 3584 1959 3584 
z
" transform="scale(0.015625)"/>
      <path id="DejaVuSans-43" d="M 4122 4306 
L 4122 3641 
Q 3803 3938 3442 4084 
Q 3081 4231 2675 4231 
Q 1875 4231 1450 3742 
Q 1025 3253 1025 2328 
Q 1025 1406 1450 917 
Q 1875 428 2675 428 
Q 3081 428 3442 575 
Q 3803 722 4122 1019 
L 4122 359 
Q 3791 134 3420 21 
Q 3050 -91 2638 -91 
Q 1578 -91 968 557 
Q 359 1206 359 2328 
Q 359 3453 968 4101 
Q 1578 4750 2638 4750 
Q 3056 4750 3426 4639 
Q 3797 4528 4122 4306 
z
" transform="scale(0.015625)"/>
      <path id="DejaVuSans-79" d="M 2059 -325 
Q 1816 -950 1584 -1140 
Q 1353 -1331 966 -1331 
L 506 -1331 
L 506 -850 
L 844 -850 
Q 1081 -850 1212 -737 
Q 1344 -625 1503 -206 
L 1606 56 
L 191 3500 
L 800 3500 
L 1894 763 
L 2988 3500 
L 3597 3500 
L 2059 -325 
z
" transform="scale(0.015625)"/>
      <path id="DejaVuSans-63" d="M 3122 3366 
L 3122 2828 
Q 2878 2963 2633 3030 
Q 2388 3097 2138 3097 
Q 1578 3097 1268 2742 
Q 959 2388 959 1747 
Q 959 1106 1268 751 
Q 1578 397 2138 397 
Q 2388 397 2633 464 
Q 2878 531 3122 666 
L 3122 134 
Q 2881 22 2623 -34 
Q 2366 -91 2075 -91 
Q 1284 -91 818 406 
Q 353 903 353 1747 
Q 353 2603 823 3093 
Q 1294 3584 2113 3584 
Q 2378 3584 2631 3529 
Q 2884 3475 3122 3366 
z
" transform="scale(0.015625)"/>
      <path id="DejaVuSans-20" transform="scale(0.015625)"/>
      <path id="DejaVuSans-54" d="M -19 4666 
L 3928 4666 
L 3928 4134 
L 2272 4134 
L 2272 0 
L 1638 0 
L 1638 4134 
L -19 4134 
L -19 4666 
z
" transform="scale(0.015625)"/>
      <path id="DejaVuSans-65" d="M 3597 1894 
L 3597 1613 
L 953 1613 
Q 991 1019 1311 708 
Q 1631 397 2203 397 
Q 2534 397 2845 478 
Q 3156 559 3463 722 
L 3463 178 
Q 3153 47 2828 -22 
Q 2503 -91 2169 -91 
Q 1331 -91 842 396 
Q 353 884 353 1716 
Q 353 2575 817 3079 
Q 1281 3584 2069 3584 
Q 2775 3584 3186 3129 
Q 3597 2675 3597 1894 
z
M 3022 2063 
Q 3016 2534 2758 2815 
Q 2500 3097 2075 3097 
Q 1594 3097 1305 2825 
Q 1016 2553 972 2059 
L 3022 2063 
z
" transform="scale(0.015625)"/>
      <path id="DejaVuSans-72" d="M 2631 2963 
Q 2534 3019 2420 3045 
Q 2306 3072 2169 3072 
Q 1681 3072 1420 2755 
Q 1159 2438 1159 1844 
L 1159 0 
L 581 0 
L 581 3500 
L 1159 3500 
L 1159 2956 
Q 1341 3275 1631 3429 
Q 1922 3584 2338 3584 
Q 2397 3584 2469 3576 
Q 2541 3569 2628 3553 
L 2631 2963 
z
" transform="scale(0.015625)"/>
      <path id="DejaVuSans-32" d="M 1228 531 
L 3431 531 
L 3431 0 
L 469 0 
L 469 531 
Q 828 903 1448 1529 
Q 2069 2156 2228 2338 
Q 2531 2678 2651 2914 
Q 2772 3150 2772 3378 
Q 2772 3750 2511 3984 
Q 2250 4219 1831 4219 
Q 1534 4219 1204 4116 
Q 875 4013 500 3803 
L 500 4441 
Q 881 4594 1212 4672 
Q 1544 4750 1819 4750 
Q 2544 4750 2975 4387 
Q 3406 4025 3406 3419 
Q 3406 3131 3298 2873 
Q 3191 2616 2906 2266 
Q 2828 2175 2409 1742 
Q 1991 1309 1228 531 
z
" transform="scale(0.015625)"/>
     </defs>
     <use xlink:href="#DejaVuSans-42"/>
     <use xlink:href="#DejaVuSans-69" x="68.603516"/>
     <use xlink:href="#DejaVuSans-6f" x="96.386719"/>
     <use xlink:href="#DejaVuSans-43" x="157.568359"/>
     <use xlink:href="#DejaVuSans-79" x="227.392578"/>
     <use xlink:href="#DejaVuSans-63" x="286.572266"/>
     <use xlink:href="#DejaVuSans-20" x="341.552734"/>
     <use xlink:href="#DejaVuSans-54" x="373.339844"/>
     <use xlink:href="#DejaVuSans-69" x="431.298828"/>
     <use xlink:href="#DejaVuSans-65" x="459.082031"/>
     <use xlink:href="#DejaVuSans-72" x="520.605469"/>
     <use xlink:href="#DejaVuSans-20" x="561.71875"/>
     <use xlink:href="#DejaVuSans-32" x="593.505859"/>
    </g>
   </g>
   <g id="text_8">
    <!-- master table totals -->
    <g transform="translate(207.605185 588.07387)scale(0.12 -0.12)">
     <defs>
      <path id="DejaVuSans-6d" d="M 3328 2828 
Q 3544 3216 3844 3400 
Q 4144 3584 4550 3584 
Q 5097 3584 5394 3201 
Q 5691 2819 5691 2113 
L 5691 0 
L 5113 0 
L 5113 2094 
Q 5113 2597 4934 2840 
Q 4756 3084 4391 3084 
Q 3944 3084 3684 2787 
Q 3425 2491 3425 1978 
L 3425 0 
L 2847 0 
L 2847 2094 
Q 2847 2600 2669 2842 
Q 2491 3084 2119 3084 
Q 1678 3084 1418 2786 
Q 1159 2488 1159 1978 
L 1159 0 
L 581 0 
L 581 3500 
L 1159 3500 
L 1159 2956 
Q 1356 3278 1631 3431 
Q 1906 3584 2284 3584 
Q 2666 3584 2933 3390 
Q 3200 3197 3328 2828 
z
" transform="scale(0.015625)"/>
      <path id="DejaVuSans-61" d="M 2194 1759 
Q 1497 1759 1228 1600 
Q 959 1441 959 1056 
Q 959 750 1161 570 
Q 1363 391 1709 391 
Q 2188 391 2477 730 
Q 2766 1069 2766 1631 
L 2766 1759 
L 2194 1759 
z
M 3341 1997 
L 3341 0 
L 2766 0 
L 2766 531 
Q 2569 213 2275 61 
Q 1981 -91 1556 -91 
Q 1019 -91 701 211 
Q 384 513 384 1019 
Q 384 1609 779 1909 
Q 1175 2209 1959 2209 
L 2766 2209 
L 2766 2266 
Q 2766 2663 2505 2880 
Q 2244 3097 1772 3097 
Q 1472 3097 1187 3025 
Q 903 2953 641 2809 
L 641 3341 
Q 956 3463 1253 3523 
Q 1550 3584 1831 3584 
Q 2591 3584 2966 3190 
Q 3341 2797 3341 1997 
z
" transform="scale(0.015625)"/>
      <path id="DejaVuSans-73" d="M 2834 3397 
L 2834 2853 
Q 2591 2978 2328 3040 
Q 2066 3103 1784 3103 
Q 1356 3103 1142 2972 
Q 928 2841 928 2578 
Q 928 2378 1081 2264 
Q 1234 2150 1697 2047 
L 1894 2003 
Q 2506 1872 2764 1633 
Q 3022 1394 3022 966 
Q 3022 478 2636 193 
Q 2250 -91 1575 -91 
Q 1294 -91 989 -36 
Q 684 19 347 128 
L 347 722 
Q 666 556 975 473 
Q 1284 391 1588 391 
Q 1994 391 2212 530 
Q 2431 669 2431 922 
Q 2431 1156 2273 1281 
Q 2116 1406 1581 1522 
L 1381 1569 
Q 847 1681 609 1914 
Q 372 2147 372 2553 
Q 372 3047 722 3315 
Q 1072 3584 1716 3584 
Q 2034 3584 2315 3537 
Q 2597 3491 2834 3397 
z
" transform="scale(0.015625)"/>
      <path id="DejaVuSans-74" d="M 1172 4494 
L 1172 3500 
L 2356 3500 
L 2356 3053 
L 1172 3053 
L 1172 1153 
Q 1172 725 1289 603 
Q 1406 481 1766 481 
L 2356 481 
L 2356 0 
L 1766 0 
Q 1100 0 847 248 
Q 594 497 594 1153 
L 594 3053 
L 172 3053 
L 172 3500 
L 594 3500 
L 594 4494 
L 1172 4494 
z
" transform="scale(0.015625)"/>
      <path id="DejaVuSans-62" d="M 3116 1747 
Q 3116 2381 2855 2742 
Q 2594 3103 2138 3103 
Q 1681 3103 1420 2742 
Q 1159 2381 1159 1747 
Q 1159 1113 1420 752 
Q 1681 391 2138 391 
Q 2594 391 2855 752 
Q 3116 1113 3116 1747 
z
M 1159 2969 
Q 1341 3281 1617 3432 
Q 1894 3584 2278 3584 
Q 2916 3584 3314 3078 
Q 3713 2572 3713 1747 
Q 3713 922 3314 415 
Q 2916 -91 2278 -91 
Q 1894 -91 1617 61 
Q 1341 213 1159 525 
L 1159 0 
L 581 0 
L 581 4863 
L 1159 4863 
L 1159 2969 
z
" transform="scale(0.015625)"/>
      <path id="DejaVuSans-6c" d="M 603 4863 
L 1178 4863 
L 1178 0 
L 603 0 
L 603 4863 
z
" transform="scale(0.015625)"/>
     </defs>
     <use xlink:href="#DejaVuSans-6d"/>
     <use xlink:href="#DejaVuSans-61" x="97.412109"/>
     <use xlink:href="#DejaVuSans-73" x="158.691406"/>
     <use xlink:href="#DejaVuSans-74" x="210.791016"/>
     <use xlink:href="#DejaVuSans-65" x="250"/>
     <use xlink:href="#DejaVuSans-72" x="311.523438"/>
     <use xlink:href="#DejaVuSans-20" x="352.636719"/>
     <use xlink:href="#DejaVuSans-74" x="384.423828"/>
     <use xlink:href="#DejaVuSans-61" x="423.632812"/>
     <use xlink:href="#DejaVuSans-62" x="484.912109"/>
     <use xlink:href="#DejaVuSans-6c" x="548.388672"/>
     <use xlink:href="#DejaVuSans-65" x="576.171875"/>
     <use xlink:href="#DejaVuSans-20" x="637.695312"/>
     <use xlink:href="#DejaVuSans-74" x="669.482422"/>
     <use xlink:href="#DejaVuSans-6f" x="708.691406"/>
     <use xlink:href="#DejaVuSans-74" x="769.873047"/>
     <use xlink:href="#DejaVuSans-61" x="809.082031"/>
     <use xlink:href="#DejaVuSans-6c" x="870.361328"/>
     <use xlink:href="#DejaVuSans-73" x="898.144531"/>
    </g>
   </g>
  </g>
 </g>
 <defs>
  <clipPath id="p78d07af972">
   <rect x="10.8" y="113.85406" width="698.4" height="492.291879"/>
  </clipPath>
 </defs>
</svg>
