<?xml version="1.0" encoding="utf-8" standalone="no"?>
<!DOCTYPE svg PUBLIC "-//W3C//DTD SVG 1.1//EN"
  "http://www.w3.org/Graphics/SVG/1.1/DTD/svg11.dtd">
<svg xmlns:xlink="http://www.w3.org/1999/xlink" width="2160pt" height="2880pt" viewBox="0 0 2160 2880" xmlns="http://www.w3.org/2000/svg" version="1.1">
 <metadata>
  <rdf:RDF xmlns:dc="http://purl.org/dc/elements/1.1/" xmlns:cc="http://creativecommons.org/ns#" xmlns:rdf="http://www.w3.org/1999/02/22-rdf-syntax-ns#">
   <cc:Work>
    <dc:type rdf:resource="http://purl.org/dc/dcmitype/StillImage"/>
    <dc:date>2022-06-30T15:35:55.618802</dc:date>
    <dc:format>image/svg+xml</dc:format>
    <dc:creator>
     <cc:Agent>
      <dc:title>Matplotlib v3.5.2, https://matplotlib.org/</dc:title>
     </cc:Agent>
    </dc:creator>
   </cc:Work>
  </rdf:RDF>
 </metadata>
 <defs>
  <style type="text/css">*{stroke-linejoin: round; stroke-linecap: butt}</style>
 </defs>
 <g id="figure_1">
  <g id="patch_1">
   <path d="M 0 2880 
L 2160 2880 
L 2160 0 
L 0 0 
L 0 2880 
z
" style="fill: none"/>
  </g>
  <g id="axes_1">
   <g id="patch_2">
    <path d="M 597.95504 1440 
C 597.95504 1408.846915 591.860005 1377.992667 580.014133 1349.179648 
C 568.168261 1320.36663 550.798815 1294.147621 528.886679 1272.003254 
L 359.109463 1440 
L 597.95504 1440 
z
" style="fill: #66c2a5"/>
   </g>
   <g id="patch_3">
    <path d="M 528.886679 1272.003254 
C 498.448205 1241.242186 460.214258 1219.324279 418.288425 1208.601944 
C 376.362592 1197.87961 332.300469 1198.750686 290.831174 1211.121681 
C 249.361879 1223.492675 212.024069 1246.904581 182.825151 1278.844637 
C 153.626233 1310.784692 133.64959 1350.067807 125.039283 1392.477789 
C 116.428976 1434.887771 119.504478 1478.851059 133.9357 1519.649144 
C 148.366922 1560.44723 173.618415 1596.566359 206.979976 1624.129925 
C 240.341538 1651.69349 280.575336 1669.678786 323.363143 1676.155479 
C 366.15095 1682.632173 409.905185 1677.359955 449.929778 1660.904685 
L 359.109463 1440 
L 528.886679 1272.003254 
z
" style="fill: #a6d854"/>
   </g>
   <g id="patch_4">
    <path d="M 449.929778 1660.904685 
C 493.714485 1642.903524 531.174305 1612.28477 557.527245 1572.957111 
C 583.880186 1533.629451 597.955033 1487.340738 597.95504 1440.000034 
L 359.109463 1440 
L 449.929778 1660.904685 
z
" style="fill: #b3b3b3"/>
   </g>
   <g id="matplotlib.axis_1"/>
   <g id="matplotlib.axis_2">
    <g id="text_1">
     <!-- Domain -->
     <g transform="translate(48.477179 1482.683437)rotate(-90)scale(0.22 -0.22)">
      <defs>
       <path id="DejaVuSans-44" d="M 1259 4147 
L 1259 519 
L 2022 519 
Q 2988 519 3436 956 
Q 3884 1394 3884 2338 
Q 3884 3275 3436 3711 
Q 2988 4147 2022 4147 
L 1259 4147 
z
M 628 4666 
L 1925 4666 
Q 3281 4666 3915 4102 
Q 4550 3538 4550 2338 
Q 4550 1131 3912 565 
Q 3275 0 1925 0 
L 628 0 
L 628 4666 
z
" transform="scale(0.015625)"/>
       <path id="DejaVuSans-6f" d="M 1959 3097 
Q 1497 3097 1228 2736 
Q 959 2375 959 1747 
Q 959 1119 1226 758 
Q 1494 397 1959 397 
Q 2419 397 2687 759 
Q 2956 1122 2956 1747 
Q 2956 2369 2687 2733 
Q 2419 3097 1959 3097 
z
M 1959 3584 
Q 2709 3584 3137 3096 
Q 3566 2609 3566 1747 
Q 3566 888 3137 398 
Q 2709 -91 1959 -91 
Q 1206 -91 779 398 
Q 353 888 353 1747 
Q 353 2609 779 3096 
Q 1206 3584 1959 3584 
z
" transform="scale(0.015625)"/>
       <path id="DejaVuSans-6d" d="M 3328 2828 
Q 3544 3216 3844 3400 
Q 4144 3584 4550 3584 
Q 5097 3584 5394 3201 
Q 5691 2819 5691 2113 
L 5691 0 
L 5113 0 
L 5113 2094 
Q 5113 2597 4934 2840 
Q 4756 3084 4391 3084 
Q 3944 3084 3684 2787 
Q 3425 2491 3425 1978 
L 3425 0 
L 2847 0 
L 2847 2094 
Q 2847 2600 2669 2842 
Q 2491 3084 2119 3084 
Q 1678 3084 1418 2786 
Q 1159 2488 1159 1978 
L 1159 0 
L 581 0 
L 581 3500 
L 1159 3500 
L 1159 2956 
Q 1356 3278 1631 3431 
Q 1906 3584 2284 3584 
Q 2666 3584 2933 3390 
Q 3200 3197 3328 2828 
z
" transform="scale(0.015625)"/>
       <path id="DejaVuSans-61" d="M 2194 1759 
Q 1497 1759 1228 1600 
Q 959 1441 959 1056 
Q 959 750 1161 570 
Q 1363 391 1709 391 
Q 2188 391 2477 730 
Q 2766 1069 2766 1631 
L 2766 1759 
L 2194 1759 
z
M 3341 1997 
L 3341 0 
L 2766 0 
L 2766 531 
Q 2569 213 2275 61 
Q 1981 -91 1556 -91 
Q 1019 -91 701 211 
Q 384 513 384 1019 
Q 384 1609 779 1909 
Q 1175 2209 1959 2209 
L 2766 2209 
L 2766 2266 
Q 2766 2663 2505 2880 
Q 2244 3097 1772 3097 
Q 1472 3097 1187 3025 
Q 903 2953 641 2809 
L 641 3341 
Q 956 3463 1253 3523 
Q 1550 3584 1831 3584 
Q 2591 3584 2966 3190 
Q 3341 2797 3341 1997 
z
" transform="scale(0.015625)"/>
       <path id="DejaVuSans-69" d="M 603 3500 
L 1178 3500 
L 1178 0 
L 603 0 
L 603 3500 
z
M 603 4863 
L 1178 4863 
L 1178 4134 
L 603 4134 
L 603 4863 
z
" transform="scale(0.015625)"/>
       <path id="DejaVuSans-6e" d="M 3513 2113 
L 3513 0 
L 2938 0 
L 2938 2094 
Q 2938 2591 2744 2837 
Q 2550 3084 2163 3084 
Q 1697 3084 1428 2787 
Q 1159 2491 1159 1978 
L 1159 0 
L 581 0 
L 581 3500 
L 1159 3500 
L 1159 2956 
Q 1366 3272 1645 3428 
Q 1925 3584 2291 3584 
Q 2894 3584 3203 3211 
Q 3513 2838 3513 2113 
z
" transform="scale(0.015625)"/>
      </defs>
      <use xlink:href="#DejaVuSans-44"/>
      <use xlink:href="#DejaVuSans-6f" x="77.001953"/>
      <use xlink:href="#DejaVuSans-6d" x="138.183594"/>
      <use xlink:href="#DejaVuSans-61" x="235.595703"/>
      <use xlink:href="#DejaVuSans-69" x="296.875"/>
      <use xlink:href="#DejaVuSans-6e" x="324.658203"/>
     </g>
    </g>
   </g>
   <g id="text_2">
    <!-- Archaea -->
    <g transform="translate(602.1046 1345.616363)scale(0.2 -0.2)">
     <defs>
      <path id="DejaVuSans-41" d="M 2188 4044 
L 1331 1722 
L 3047 1722 
L 2188 4044 
z
M 1831 4666 
L 2547 4666 
L 4325 0 
L 3669 0 
L 3244 1197 
L 1141 1197 
L 716 0 
L 50 0 
L 1831 4666 
z
" transform="scale(0.015625)"/>
      <path id="DejaVuSans-72" d="M 2631 2963 
Q 2534 3019 2420 3045 
Q 2306 3072 2169 3072 
Q 1681 3072 1420 2755 
Q 1159 2438 1159 1844 
L 1159 0 
L 581 0 
L 581 3500 
L 1159 3500 
L 1159 2956 
Q 1341 3275 1631 3429 
Q 1922 3584 2338 3584 
Q 2397 3584 2469 3576 
Q 2541 3569 2628 3553 
L 2631 2963 
z
" transform="scale(0.015625)"/>
      <path id="DejaVuSans-63" d="M 3122 3366 
L 3122 2828 
Q 2878 2963 2633 3030 
Q 2388 3097 2138 3097 
Q 1578 3097 1268 2742 
Q 959 2388 959 1747 
Q 959 1106 1268 751 
Q 1578 397 2138 397 
Q 2388 397 2633 464 
Q 2878 531 3122 666 
L 3122 134 
Q 2881 22 2623 -34 
Q 2366 -91 2075 -91 
Q 1284 -91 818 406 
Q 353 903 353 1747 
Q 353 2603 823 3093 
Q 1294 3584 2113 3584 
Q 2378 3584 2631 3529 
Q 2884 3475 3122 3366 
z
" transform="scale(0.015625)"/>
      <path id="DejaVuSans-68" d="M 3513 2113 
L 3513 0 
L 2938 0 
L 2938 2094 
Q 2938 2591 2744 2837 
Q 2550 3084 2163 3084 
Q 1697 3084 1428 2787 
Q 1159 2491 1159 1978 
L 1159 0 
L 581 0 
L 581 4863 
L 1159 4863 
L 1159 2956 
Q 1366 3272 1645 3428 
Q 1925 3584 2291 3584 
Q 2894 3584 3203 3211 
Q 3513 2838 3513 2113 
z
" transform="scale(0.015625)"/>
      <path id="DejaVuSans-65" d="M 3597 1894 
L 3597 1613 
L 953 1613 
Q 991 1019 1311 708 
Q 1631 397 2203 397 
Q 2534 397 2845 478 
Q 3156 559 3463 722 
L 3463 178 
Q 3153 47 2828 -22 
Q 2503 -91 2169 -91 
Q 1331 -91 842 396 
Q 353 884 353 1716 
Q 353 2575 817 3079 
Q 1281 3584 2069 3584 
Q 2775 3584 3186 3129 
Q 3597 2675 3597 1894 
z
M 3022 2063 
Q 3016 2534 2758 2815 
Q 2500 3097 2075 3097 
Q 1594 3097 1305 2825 
Q 1016 2553 972 2059 
L 3022 2063 
z
" transform="scale(0.015625)"/>
     </defs>
     <use xlink:href="#DejaVuSans-41"/>
     <use xlink:href="#DejaVuSans-72" x="68.408203"/>
     <use xlink:href="#DejaVuSans-63" x="107.271484"/>
     <use xlink:href="#DejaVuSans-68" x="162.251953"/>
     <use xlink:href="#DejaVuSans-61" x="225.630859"/>
     <use xlink:href="#DejaVuSans-65" x="286.910156"/>
     <use xlink:href="#DejaVuSans-61" x="348.433594"/>
    </g>
   </g>
   <g id="text_3">
    <!-- 37 -->
    <g transform="translate(478.927265 1379.828726)scale(0.2 -0.2)">
     <defs>
      <path id="DejaVuSans-33" d="M 2597 2516 
Q 3050 2419 3304 2112 
Q 3559 1806 3559 1356 
Q 3559 666 3084 287 
Q 2609 -91 1734 -91 
Q 1441 -91 1130 -33 
Q 819 25 488 141 
L 488 750 
Q 750 597 1062 519 
Q 1375 441 1716 441 
Q 2309 441 2620 675 
Q 2931 909 2931 1356 
Q 2931 1769 2642 2001 
Q 2353 2234 1838 2234 
L 1294 2234 
L 1294 2753 
L 1863 2753 
Q 2328 2753 2575 2939 
Q 2822 3125 2822 3475 
Q 2822 3834 2567 4026 
Q 2313 4219 1838 4219 
Q 1578 4219 1281 4162 
Q 984 4106 628 3988 
L 628 4550 
Q 988 4650 1302 4700 
Q 1616 4750 1894 4750 
Q 2613 4750 3031 4423 
Q 3450 4097 3450 3541 
Q 3450 3153 3228 2886 
Q 3006 2619 2597 2516 
z
" transform="scale(0.015625)"/>
      <path id="DejaVuSans-37" d="M 525 4666 
L 3525 4666 
L 3525 4397 
L 1831 0 
L 1172 0 
L 2766 4134 
L 525 4134 
L 525 4666 
z
" transform="scale(0.015625)"/>
     </defs>
     <use xlink:href="#DejaVuSans-33"/>
     <use xlink:href="#DejaVuSans-37" x="63.623047"/>
    </g>
    <!-- 12% -->
    <g transform="translate(469.425703 1402.224351)scale(0.2 -0.2)">
     <defs>
      <path id="DejaVuSans-31" d="M 794 531 
L 1825 531 
L 1825 4091 
L 703 3866 
L 703 4441 
L 1819 4666 
L 2450 4666 
L 2450 531 
L 3481 531 
L 3481 0 
L 794 0 
L 794 531 
z
" transform="scale(0.015625)"/>
      <path id="DejaVuSans-32" d="M 1228 531 
L 3431 531 
L 3431 0 
L 469 0 
L 469 531 
Q 828 903 1448 1529 
Q 2069 2156 2228 2338 
Q 2531 2678 2651 2914 
Q 2772 3150 2772 3378 
Q 2772 3750 2511 3984 
Q 2250 4219 1831 4219 
Q 1534 4219 1204 4116 
Q 875 4013 500 3803 
L 500 4441 
Q 881 4594 1212 4672 
Q 1544 4750 1819 4750 
Q 2544 4750 2975 4387 
Q 3406 4025 3406 3419 
Q 3406 3131 3298 2873 
Q 3191 2616 2906 2266 
Q 2828 2175 2409 1742 
Q 1991 1309 1228 531 
z
" transform="scale(0.015625)"/>
      <path id="DejaVuSans-25" d="M 4653 2053 
Q 4381 2053 4226 1822 
Q 4072 1591 4072 1178 
Q 4072 772 4226 539 
Q 4381 306 4653 306 
Q 4919 306 5073 539 
Q 5228 772 5228 1178 
Q 5228 1588 5073 1820 
Q 4919 2053 4653 2053 
z
M 4653 2450 
Q 5147 2450 5437 2106 
Q 5728 1763 5728 1178 
Q 5728 594 5436 251 
Q 5144 -91 4653 -91 
Q 4153 -91 3862 251 
Q 3572 594 3572 1178 
Q 3572 1766 3864 2108 
Q 4156 2450 4653 2450 
z
M 1428 4353 
Q 1159 4353 1004 4120 
Q 850 3888 850 3481 
Q 850 3069 1003 2837 
Q 1156 2606 1428 2606 
Q 1700 2606 1854 2837 
Q 2009 3069 2009 3481 
Q 2009 3884 1853 4118 
Q 1697 4353 1428 4353 
z
M 4250 4750 
L 4750 4750 
L 1831 -91 
L 1331 -91 
L 4250 4750 
z
M 1428 4750 
Q 1922 4750 2215 4408 
Q 2509 4066 2509 3481 
Q 2509 2891 2217 2550 
Q 1925 2209 1428 2209 
Q 931 2209 642 2551 
Q 353 2894 353 3481 
Q 353 4063 643 4406 
Q 934 4750 1428 4750 
z
" transform="scale(0.015625)"/>
     </defs>
     <use xlink:href="#DejaVuSans-31"/>
     <use xlink:href="#DejaVuSans-32" x="63.623047"/>
     <use xlink:href="#DejaVuSans-25" x="127.246094"/>
    </g>
   </g>
   <g id="text_4">
    <!-- Bacteria -->
    <g transform="translate(18.476015 1393.244318)scale(0.2 -0.2)">
     <defs>
      <path id="DejaVuSans-42" d="M 1259 2228 
L 1259 519 
L 2272 519 
Q 2781 519 3026 730 
Q 3272 941 3272 1375 
Q 3272 1813 3026 2020 
Q 2781 2228 2272 2228 
L 1259 2228 
z
M 1259 4147 
L 1259 2741 
L 2194 2741 
Q 2656 2741 2882 2914 
Q 3109 3088 3109 3444 
Q 3109 3797 2882 3972 
Q 2656 4147 2194 4147 
L 1259 4147 
z
M 628 4666 
L 2241 4666 
Q 2963 4666 3353 4366 
Q 3744 4066 3744 3513 
Q 3744 3084 3544 2831 
Q 3344 2578 2956 2516 
Q 3422 2416 3680 2098 
Q 3938 1781 3938 1306 
Q 3938 681 3513 340 
Q 3088 0 2303 0 
L 628 0 
L 628 4666 
z
" transform="scale(0.015625)"/>
      <path id="DejaVuSans-74" d="M 1172 4494 
L 1172 3500 
L 2356 3500 
L 2356 3053 
L 1172 3053 
L 1172 1153 
Q 1172 725 1289 603 
Q 1406 481 1766 481 
L 2356 481 
L 2356 0 
L 1766 0 
Q 1100 0 847 248 
Q 594 497 594 1153 
L 594 3053 
L 172 3053 
L 172 3500 
L 594 3500 
L 594 4494 
L 1172 4494 
z
" transform="scale(0.015625)"/>
     </defs>
     <use xlink:href="#DejaVuSans-42"/>
     <use xlink:href="#DejaVuSans-61" x="68.603516"/>
     <use xlink:href="#DejaVuSans-63" x="129.882812"/>
     <use xlink:href="#DejaVuSans-74" x="184.863281"/>
     <use xlink:href="#DejaVuSans-65" x="224.072266"/>
     <use xlink:href="#DejaVuSans-72" x="285.595703"/>
     <use xlink:href="#DejaVuSans-69" x="326.708984"/>
     <use xlink:href="#DejaVuSans-61" x="354.492188"/>
    </g>
   </g>
   <g id="text_5">
    <!-- 205 -->
    <g transform="translate(199.579855 1405.807611)scale(0.2 -0.2)">
     <defs>
      <path id="DejaVuSans-30" d="M 2034 4250 
Q 1547 4250 1301 3770 
Q 1056 3291 1056 2328 
Q 1056 1369 1301 889 
Q 1547 409 2034 409 
Q 2525 409 2770 889 
Q 3016 1369 3016 2328 
Q 3016 3291 2770 3770 
Q 2525 4250 2034 4250 
z
M 2034 4750 
Q 2819 4750 3233 4129 
Q 3647 3509 3647 2328 
Q 3647 1150 3233 529 
Q 2819 -91 2034 -91 
Q 1250 -91 836 529 
Q 422 1150 422 2328 
Q 422 3509 836 4129 
Q 1250 4750 2034 4750 
z
" transform="scale(0.015625)"/>
      <path id="DejaVuSans-35" d="M 691 4666 
L 3169 4666 
L 3169 4134 
L 1269 4134 
L 1269 2991 
Q 1406 3038 1543 3061 
Q 1681 3084 1819 3084 
Q 2600 3084 3056 2656 
Q 3513 2228 3513 1497 
Q 3513 744 3044 326 
Q 2575 -91 1722 -91 
Q 1428 -91 1123 -41 
Q 819 9 494 109 
L 494 744 
Q 775 591 1075 516 
Q 1375 441 1709 441 
Q 2250 441 2565 725 
Q 2881 1009 2881 1497 
Q 2881 1984 2565 2268 
Q 2250 2553 1709 2553 
Q 1456 2553 1204 2497 
Q 953 2441 691 2322 
L 691 4666 
z
" transform="scale(0.015625)"/>
     </defs>
     <use xlink:href="#DejaVuSans-32"/>
     <use xlink:href="#DejaVuSans-30" x="63.623047"/>
     <use xlink:href="#DejaVuSans-35" x="127.246094"/>
    </g>
    <!-- 69% -->
    <g transform="translate(196.440792 1428.203236)scale(0.2 -0.2)">
     <defs>
      <path id="DejaVuSans-36" d="M 2113 2584 
Q 1688 2584 1439 2293 
Q 1191 2003 1191 1497 
Q 1191 994 1439 701 
Q 1688 409 2113 409 
Q 2538 409 2786 701 
Q 3034 994 3034 1497 
Q 3034 2003 2786 2293 
Q 2538 2584 2113 2584 
z
M 3366 4563 
L 3366 3988 
Q 3128 4100 2886 4159 
Q 2644 4219 2406 4219 
Q 1781 4219 1451 3797 
Q 1122 3375 1075 2522 
Q 1259 2794 1537 2939 
Q 1816 3084 2150 3084 
Q 2853 3084 3261 2657 
Q 3669 2231 3669 1497 
Q 3669 778 3244 343 
Q 2819 -91 2113 -91 
Q 1303 -91 875 529 
Q 447 1150 447 2328 
Q 447 3434 972 4092 
Q 1497 4750 2381 4750 
Q 2619 4750 2861 4703 
Q 3103 4656 3366 4563 
z
" transform="scale(0.015625)"/>
      <path id="DejaVuSans-39" d="M 703 97 
L 703 672 
Q 941 559 1184 500 
Q 1428 441 1663 441 
Q 2288 441 2617 861 
Q 2947 1281 2994 2138 
Q 2813 1869 2534 1725 
Q 2256 1581 1919 1581 
Q 1219 1581 811 2004 
Q 403 2428 403 3163 
Q 403 3881 828 4315 
Q 1253 4750 1959 4750 
Q 2769 4750 3195 4129 
Q 3622 3509 3622 2328 
Q 3622 1225 3098 567 
Q 2575 -91 1691 -91 
Q 1453 -91 1209 -44 
Q 966 3 703 97 
z
M 1959 2075 
Q 2384 2075 2632 2365 
Q 2881 2656 2881 3163 
Q 2881 3666 2632 3958 
Q 2384 4250 1959 4250 
Q 1534 4250 1286 3958 
Q 1038 3666 1038 3163 
Q 1038 2656 1286 2365 
Q 1534 2075 1959 2075 
z
" transform="scale(0.015625)"/>
     </defs>
     <use xlink:href="#DejaVuSans-36"/>
     <use xlink:href="#DejaVuSans-39" x="63.623047"/>
     <use xlink:href="#DejaVuSans-25" x="127.246094"/>
    </g>
   </g>
   <g id="text_6">
    <!-- Eukarya -->
    <g transform="translate(577.369024 1591.771572)scale(0.2 -0.2)">
     <defs>
      <path id="DejaVuSans-45" d="M 628 4666 
L 3578 4666 
L 3578 4134 
L 1259 4134 
L 1259 2753 
L 3481 2753 
L 3481 2222 
L 1259 2222 
L 1259 531 
L 3634 531 
L 3634 0 
L 628 0 
L 628 4666 
z
" transform="scale(0.015625)"/>
      <path id="DejaVuSans-75" d="M 544 1381 
L 544 3500 
L 1119 3500 
L 1119 1403 
Q 1119 906 1312 657 
Q 1506 409 1894 409 
Q 2359 409 2629 706 
Q 2900 1003 2900 1516 
L 2900 3500 
L 3475 3500 
L 3475 0 
L 2900 0 
L 2900 538 
Q 2691 219 2414 64 
Q 2138 -91 1772 -91 
Q 1169 -91 856 284 
Q 544 659 544 1381 
z
M 1991 3584 
L 1991 3584 
z
" transform="scale(0.015625)"/>
      <path id="DejaVuSans-6b" d="M 581 4863 
L 1159 4863 
L 1159 1991 
L 2875 3500 
L 3609 3500 
L 1753 1863 
L 3688 0 
L 2938 0 
L 1159 1709 
L 1159 0 
L 581 0 
L 581 4863 
z
" transform="scale(0.015625)"/>
      <path id="DejaVuSans-79" d="M 2059 -325 
Q 1816 -950 1584 -1140 
Q 1353 -1331 966 -1331 
L 506 -1331 
L 506 -850 
L 844 -850 
Q 1081 -850 1212 -737 
Q 1344 -625 1503 -206 
L 1606 56 
L 191 3500 
L 800 3500 
L 1894 763 
L 2988 3500 
L 3597 3500 
L 2059 -325 
z
" transform="scale(0.015625)"/>
     </defs>
     <use xlink:href="#DejaVuSans-45"/>
     <use xlink:href="#DejaVuSans-75" x="63.183594"/>
     <use xlink:href="#DejaVuSans-6b" x="126.5625"/>
     <use xlink:href="#DejaVuSans-61" x="182.722656"/>
     <use xlink:href="#DejaVuSans-72" x="244.001953"/>
     <use xlink:href="#DejaVuSans-79" x="285.115234"/>
     <use xlink:href="#DejaVuSans-61" x="344.294922"/>
    </g>
   </g>
   <g id="text_7">
    <!-- 56 -->
    <g transform="translate(465.435132 1514.095204)scale(0.2 -0.2)">
     <use xlink:href="#DejaVuSans-35"/>
     <use xlink:href="#DejaVuSans-36" x="63.623047"/>
    </g>
    <!-- 19% -->
    <g transform="translate(455.93357 1536.490829)scale(0.2 -0.2)">
     <use xlink:href="#DejaVuSans-31"/>
     <use xlink:href="#DejaVuSans-39" x="63.623047"/>
     <use xlink:href="#DejaVuSans-25" x="127.246094"/>
    </g>
   </g>
  </g>
  <g id="axes_2">
   <g id="patch_5">
    <path d="M 1293.391649 1440 
C 1293.391649 1399.541861 1283.111821 1359.739368 1263.520325 1324.341143 
C 1243.92883 1288.942919 1215.660647 1259.096257 1181.378094 1237.612135 
C 1147.09554 1216.128013 1107.909748 1203.702753 1067.51126 1201.506575 
C 1027.112773 1199.310397 986.810947 1207.414481 950.401434 1225.055579 
C 913.99192 1242.696677 882.65479 1269.303023 859.341394 1302.368814 
C 836.027997 1335.434605 821.493946 1373.888145 817.108066 1414.107855 
C 812.722186 1454.327564 818.626629 1495.009881 834.265309 1532.32332 
C 849.90399 1569.636758 874.770042 1602.371949 906.521567 1627.445874 
L 1054.546072 1440 
L 1293.391649 1440 
z
" style="fill: #ffb6c1"/>
   </g>
   <g id="patch_6">
    <path d="M 906.521567 1627.445874 
C 941.726016 1655.246546 984.060391 1672.575169 1028.653927 1677.438006 
C 1073.247462 1682.300843 1118.321724 1674.503959 1158.69071 1654.944421 
C 1199.059697 1635.384883 1233.113453 1604.842746 1256.933937 1566.832022 
C 1280.754422 1528.821298 1293.391649 1484.857894 1293.391649 1440 
L 1054.546072 1440 
L 906.521567 1627.445874 
z
" style="fill: #9370db"/>
   </g>
   <g id="matplotlib.axis_3"/>
   <g id="matplotlib.axis_4">
    <g id="text_8">
     <!-- Gram stain -->
     <g transform="translate(743.913788 1500.807656)rotate(-90)scale(0.22 -0.22)">
      <defs>
       <path id="DejaVuSans-47" d="M 3809 666 
L 3809 1919 
L 2778 1919 
L 2778 2438 
L 4434 2438 
L 4434 434 
Q 4069 175 3628 42 
Q 3188 -91 2688 -91 
Q 1594 -91 976 548 
Q 359 1188 359 2328 
Q 359 3472 976 4111 
Q 1594 4750 2688 4750 
Q 3144 4750 3555 4637 
Q 3966 4525 4313 4306 
L 4313 3634 
Q 3963 3931 3569 4081 
Q 3175 4231 2741 4231 
Q 1884 4231 1454 3753 
Q 1025 3275 1025 2328 
Q 1025 1384 1454 906 
Q 1884 428 2741 428 
Q 3075 428 3337 486 
Q 3600 544 3809 666 
z
" transform="scale(0.015625)"/>
       <path id="DejaVuSans-20" transform="scale(0.015625)"/>
       <path id="DejaVuSans-73" d="M 2834 3397 
L 2834 2853 
Q 2591 2978 2328 3040 
Q 2066 3103 1784 3103 
Q 1356 3103 1142 2972 
Q 928 2841 928 2578 
Q 928 2378 1081 2264 
Q 1234 2150 1697 2047 
L 1894 2003 
Q 2506 1872 2764 1633 
Q 3022 1394 3022 966 
Q 3022 478 2636 193 
Q 2250 -91 1575 -91 
Q 1294 -91 989 -36 
Q 684 19 347 128 
L 347 722 
Q 666 556 975 473 
Q 1284 391 1588 391 
Q 1994 391 2212 530 
Q 2431 669 2431 922 
Q 2431 1156 2273 1281 
Q 2116 1406 1581 1522 
L 1381 1569 
Q 847 1681 609 1914 
Q 372 2147 372 2553 
Q 372 3047 722 3315 
Q 1072 3584 1716 3584 
Q 2034 3584 2315 3537 
Q 2597 3491 2834 3397 
z
" transform="scale(0.015625)"/>
      </defs>
      <use xlink:href="#DejaVuSans-47"/>
      <use xlink:href="#DejaVuSans-72" x="77.490234"/>
      <use xlink:href="#DejaVuSans-61" x="118.603516"/>
      <use xlink:href="#DejaVuSans-6d" x="179.882812"/>
      <use xlink:href="#DejaVuSans-20" x="277.294922"/>
      <use xlink:href="#DejaVuSans-73" x="309.082031"/>
      <use xlink:href="#DejaVuSans-74" x="361.181641"/>
      <use xlink:href="#DejaVuSans-61" x="400.390625"/>
      <use xlink:href="#DejaVuSans-69" x="461.669922"/>
      <use xlink:href="#DejaVuSans-6e" x="489.453125"/>
     </g>
    </g>
   </g>
   <g id="text_9">
    <!-- Negative -->
    <g transform="translate(850.22447 1209.079887)scale(0.2 -0.2)">
     <defs>
      <path id="DejaVuSans-4e" d="M 628 4666 
L 1478 4666 
L 3547 763 
L 3547 4666 
L 4159 4666 
L 4159 0 
L 3309 0 
L 1241 3903 
L 1241 0 
L 628 0 
L 628 4666 
z
" transform="scale(0.015625)"/>
      <path id="DejaVuSans-67" d="M 2906 1791 
Q 2906 2416 2648 2759 
Q 2391 3103 1925 3103 
Q 1463 3103 1205 2759 
Q 947 2416 947 1791 
Q 947 1169 1205 825 
Q 1463 481 1925 481 
Q 2391 481 2648 825 
Q 2906 1169 2906 1791 
z
M 3481 434 
Q 3481 -459 3084 -895 
Q 2688 -1331 1869 -1331 
Q 1566 -1331 1297 -1286 
Q 1028 -1241 775 -1147 
L 775 -588 
Q 1028 -725 1275 -790 
Q 1522 -856 1778 -856 
Q 2344 -856 2625 -561 
Q 2906 -266 2906 331 
L 2906 616 
Q 2728 306 2450 153 
Q 2172 0 1784 0 
Q 1141 0 747 490 
Q 353 981 353 1791 
Q 353 2603 747 3093 
Q 1141 3584 1784 3584 
Q 2172 3584 2450 3431 
Q 2728 3278 2906 2969 
L 2906 3500 
L 3481 3500 
L 3481 434 
z
" transform="scale(0.015625)"/>
      <path id="DejaVuSans-76" d="M 191 3500 
L 800 3500 
L 1894 563 
L 2988 3500 
L 3597 3500 
L 2284 0 
L 1503 0 
L 191 3500 
z
" transform="scale(0.015625)"/>
     </defs>
     <use xlink:href="#DejaVuSans-4e"/>
     <use xlink:href="#DejaVuSans-65" x="74.804688"/>
     <use xlink:href="#DejaVuSans-67" x="136.328125"/>
     <use xlink:href="#DejaVuSans-61" x="199.804688"/>
     <use xlink:href="#DejaVuSans-74" x="261.083984"/>
     <use xlink:href="#DejaVuSans-69" x="300.292969"/>
     <use xlink:href="#DejaVuSans-76" x="328.076172"/>
     <use xlink:href="#DejaVuSans-65" x="387.255859"/>
    </g>
   </g>
   <g id="text_10">
    <!-- 192 -->
    <g transform="translate(972.971789 1305.354285)scale(0.2 -0.2)">
     <use xlink:href="#DejaVuSans-31"/>
     <use xlink:href="#DejaVuSans-39" x="63.623047"/>
     <use xlink:href="#DejaVuSans-32" x="127.246094"/>
    </g>
    <!-- 64% -->
    <g transform="translate(969.832726 1327.74991)scale(0.2 -0.2)">
     <defs>
      <path id="DejaVuSans-34" d="M 2419 4116 
L 825 1625 
L 2419 1625 
L 2419 4116 
z
M 2253 4666 
L 3047 4666 
L 3047 1625 
L 3713 1625 
L 3713 1100 
L 3047 1100 
L 3047 0 
L 2419 0 
L 2419 1100 
L 313 1100 
L 313 1709 
L 2253 4666 
z
" transform="scale(0.015625)"/>
     </defs>
     <use xlink:href="#DejaVuSans-36"/>
     <use xlink:href="#DejaVuSans-34" x="63.623047"/>
     <use xlink:href="#DejaVuSans-25" x="127.246094"/>
    </g>
   </g>
   <g id="text_11">
    <!-- Positive -->
    <g transform="translate(1169.105174 1681.957613)scale(0.2 -0.2)">
     <defs>
      <path id="DejaVuSans-50" d="M 1259 4147 
L 1259 2394 
L 2053 2394 
Q 2494 2394 2734 2622 
Q 2975 2850 2975 3272 
Q 2975 3691 2734 3919 
Q 2494 4147 2053 4147 
L 1259 4147 
z
M 628 4666 
L 2053 4666 
Q 2838 4666 3239 4311 
Q 3641 3956 3641 3272 
Q 3641 2581 3239 2228 
Q 2838 1875 2053 1875 
L 1259 1875 
L 1259 0 
L 628 0 
L 628 4666 
z
" transform="scale(0.015625)"/>
     </defs>
     <use xlink:href="#DejaVuSans-50"/>
     <use xlink:href="#DejaVuSans-6f" x="56.677734"/>
     <use xlink:href="#DejaVuSans-73" x="117.859375"/>
     <use xlink:href="#DejaVuSans-69" x="169.958984"/>
     <use xlink:href="#DejaVuSans-74" x="197.742188"/>
     <use xlink:href="#DejaVuSans-69" x="236.951172"/>
     <use xlink:href="#DejaVuSans-76" x="264.734375"/>
     <use xlink:href="#DejaVuSans-65" x="323.914062"/>
    </g>
   </g>
   <g id="text_12">
    <!-- 106 -->
    <g transform="translate(1097.945355 1563.28759)scale(0.2 -0.2)">
     <use xlink:href="#DejaVuSans-31"/>
     <use xlink:href="#DejaVuSans-30" x="63.623047"/>
     <use xlink:href="#DejaVuSans-36" x="127.246094"/>
    </g>
    <!-- 36% -->
    <g transform="translate(1094.806292 1585.683215)scale(0.2 -0.2)">
     <use xlink:href="#DejaVuSans-33"/>
     <use xlink:href="#DejaVuSans-36" x="63.623047"/>
     <use xlink:href="#DejaVuSans-25" x="127.246094"/>
    </g>
   </g>
  </g>
  <g id="axes_3">
   <g id="patch_7">
    <path d="M 1988.828258 1440 
C 1988.828258 1419.761305 1986.255855 1399.604433 1981.172947 1380.014414 
C 1976.09004 1360.424395 1968.537728 1341.559631 1958.69774 1323.87406 
L 1749.982681 1440 
L 1988.828258 1440 
z
" style="fill: #8000ff"/>
   </g>
   <g id="patch_8">
    <path d="M 1958.69774 1323.87406 
C 1958.288289 1323.138146 1957.874948 1322.404403 1957.457735 1321.672861 
C 1957.040522 1320.94132 1956.619444 1320.21199 1956.194516 1319.484902 
L 1749.982681 1440 
L 1958.69774 1323.87406 
z
" style="fill: #642cfe"/>
   </g>
   <g id="patch_9">
    <path d="M 1956.194516 1319.484902 
C 1955.344656 1318.030717 1954.479437 1316.585562 1953.599005 1315.14968 
C 1952.718573 1313.713797 1951.822977 1312.287269 1950.912367 1310.870332 
L 1749.982681 1440 
L 1956.194516 1319.484902 
z
" style="fill: #4856fb"/>
   </g>
   <g id="patch_10">
    <path d="M 1950.912367 1310.870332 
C 1937.224758 1289.571997 1920.237393 1270.584792 1900.587398 1254.620851 
C 1880.937404 1238.65691 1858.873556 1225.918341 1835.22338 1216.882916 
L 1749.982681 1440 
L 1950.912367 1310.870332 
z
" style="fill: #2c7ef7"/>
   </g>
   <g id="patch_11">
    <path d="M 1835.22338 1216.882916 
C 1811.573204 1207.847492 1786.63612 1202.629604 1761.347416 1201.424954 
C 1736.058713 1200.220304 1710.738553 1203.044144 1686.336595 1209.790562 
L 1749.982681 1440 
L 1835.22338 1216.882916 
z
" style="fill: #10a2f0"/>
   </g>
   <g id="patch_12">
    <path d="M 1686.336595 1209.790562 
C 1679.842031 1211.586116 1673.426357 1213.6557 1667.106794 1215.993757 
C 1660.787231 1218.331814 1654.569438 1220.936251 1648.470104 1223.800078 
L 1749.982681 1440 
L 1686.336595 1209.790562 
z
" style="fill: #0fc4e7"/>
   </g>
   <g id="patch_13">
    <path d="M 1648.470104 1223.800078 
C 1634.738292 1230.24759 1621.651923 1237.988715 1609.388463 1246.918475 
C 1597.125003 1255.848234 1585.740139 1265.926079 1575.388263 1277.015341 
L 1749.982681 1440 
L 1648.470104 1223.800078 
z
" style="fill: #2adddd"/>
   </g>
   <g id="patch_14">
    <path d="M 1575.388263 1277.015341 
C 1574.813592 1277.630948 1574.24218 1278.24959 1573.674052 1278.871241 
C 1573.105924 1279.492892 1572.541087 1280.117544 1571.979567 1280.74517 
L 1749.982681 1440 
L 1575.388263 1277.015341 
z
" style="fill: #46efd1"/>
   </g>
   <g id="patch_15">
    <path d="M 1571.979567 1280.74517 
C 1570.856517 1282.00043 1569.746777 1283.267535 1568.650533 1284.546271 
C 1567.554289 1285.825007 1566.471602 1287.115304 1565.402653 1288.416944 
L 1749.982681 1440 
L 1571.979567 1280.74517 
z
" style="fill: #62fbc4"/>
   </g>
   <g id="patch_16">
    <path d="M 1565.402653 1288.416944 
C 1564.868182 1289.067759 1564.337157 1289.721397 1563.809601 1290.37783 
C 1563.282044 1291.034262 1562.757963 1291.69348 1562.237379 1292.355456 
L 1749.982681 1440 
L 1565.402653 1288.416944 
z
" style="fill: #80ffb4"/>
   </g>
   <g id="patch_17">
    <path d="M 1562.237379 1292.355456 
C 1558.592886 1296.989807 1555.121234 1301.757511 1551.82956 1306.648771 
C 1548.537886 1311.54003 1545.428446 1316.551492 1542.50763 1321.672856 
L 1749.982681 1440 
L 1562.237379 1292.355456 
z
" style="fill: #9cfba4"/>
   </g>
   <g id="patch_18">
    <path d="M 1542.50763 1321.672856 
C 1540.838721 1324.599125 1539.231907 1327.560375 1537.688268 1330.554617 
C 1536.144629 1333.548859 1534.66451 1336.575424 1533.248903 1339.632279 
L 1749.982681 1440 
L 1542.50763 1321.672856 
z
" style="fill: #b9ef92"/>
   </g>
   <g id="patch_19">
    <path d="M 1533.248903 1339.632279 
C 1520.827552 1366.454912 1513.492736 1395.351829 1511.617978 1424.851471 
C 1509.74322 1454.351113 1513.360892 1483.944082 1522.286768 1512.123372 
L 1749.982681 1440 
L 1533.248903 1339.632279 
z
" style="fill: #d4dd80"/>
   </g>
   <g id="patch_20">
    <path d="M 1522.286768 1512.123372 
C 1526.103283 1524.17224 1530.870161 1535.899187 1536.542474 1547.193693 
C 1542.214788 1558.4882 1548.774663 1569.31467 1556.160273 1579.571072 
L 1749.982681 1440 
L 1522.286768 1512.123372 
z
" style="fill: #f0c46c"/>
   </g>
   <g id="patch_21">
    <path d="M 1556.160273 1579.571072 
C 1558.620997 1582.98828 1561.171662 1586.339815 1563.809593 1589.622161 
C 1566.447524 1592.904507 1569.171798 1596.116517 1571.979559 1599.254822 
L 1749.982681 1440 
L 1556.160273 1579.571072 
z
" style="fill: #ffa256"/>
   </g>
   <g id="patch_22">
    <path d="M 1571.979559 1599.254822 
C 1602.506181 1633.375195 1642.209091 1658.00949 1686.336587 1670.209436 
C 1730.464082 1682.409382 1777.182601 1681.668055 1820.900801 1668.074177 
C 1864.619001 1654.480299 1903.520327 1628.598715 1932.949012 1593.526974 
C 1962.377696 1558.455232 1981.110933 1515.650613 1986.906702 1470.236038 
L 1749.982681 1440 
L 1571.979559 1599.254822 
z
" style="fill: #ff7e41"/>
   </g>
   <g id="patch_23">
    <path d="M 1986.906702 1470.236038 
C 1987.226538 1467.729862 1987.506589 1465.218768 1987.746748 1462.703706 
C 1987.986907 1460.188644 1988.187145 1457.669929 1988.347386 1455.148513 
L 1749.982681 1440 
L 1986.906702 1470.236038 
z
" style="fill: #ff562c"/>
   </g>
   <g id="patch_24">
    <path d="M 1988.347386 1455.148513 
C 1988.400798 1454.308057 1988.449765 1453.467324 1988.494285 1452.62635 
C 1988.538804 1451.785376 1988.578876 1450.944172 1988.614497 1450.102774 
L 1749.982681 1440 
L 1988.347386 1455.148513 
z
" style="fill: #ff2c16"/>
   </g>
   <g id="patch_25">
    <path d="M 1988.614497 1450.102774 
C 1988.685741 1448.419966 1988.739182 1446.736451 1988.774812 1445.052513 
C 1988.810442 1443.368575 1988.828258 1441.684306 1988.828258 1439.999991 
L 1749.982681 1440 
L 1988.614497 1450.102774 
z
" style="fill: #ff0000"/>
   </g>
   <g id="matplotlib.axis_5"/>
   <g id="matplotlib.axis_6">
    <g id="text_13">
     <!-- Phylum -->
     <g transform="translate(1439.350397 1480.856406)rotate(-90)scale(0.22 -0.22)">
      <defs>
       <path id="DejaVuSans-6c" d="M 603 4863 
L 1178 4863 
L 1178 0 
L 603 0 
L 603 4863 
z
" transform="scale(0.015625)"/>
      </defs>
      <use xlink:href="#DejaVuSans-50"/>
      <use xlink:href="#DejaVuSans-68" x="60.302734"/>
      <use xlink:href="#DejaVuSans-79" x="123.681641"/>
      <use xlink:href="#DejaVuSans-6c" x="182.861328"/>
      <use xlink:href="#DejaVuSans-75" x="210.644531"/>
      <use xlink:href="#DejaVuSans-6d" x="274.023438"/>
     </g>
    </g>
   </g>
   <g id="text_14">
    <!-- Actinomycetota -->
    <g transform="translate(2004.291974 1378.430856)scale(0.16 -0.16)">
     <use xlink:href="#DejaVuSans-41"/>
     <use xlink:href="#DejaVuSans-63" x="66.658203"/>
     <use xlink:href="#DejaVuSans-74" x="121.638672"/>
     <use xlink:href="#DejaVuSans-69" x="160.847656"/>
     <use xlink:href="#DejaVuSans-6e" x="188.630859"/>
     <use xlink:href="#DejaVuSans-6f" x="252.009766"/>
     <use xlink:href="#DejaVuSans-6d" x="313.191406"/>
     <use xlink:href="#DejaVuSans-79" x="410.603516"/>
     <use xlink:href="#DejaVuSans-63" x="469.783203"/>
     <use xlink:href="#DejaVuSans-65" x="524.763672"/>
     <use xlink:href="#DejaVuSans-74" x="586.287109"/>
     <use xlink:href="#DejaVuSans-6f" x="625.496094"/>
     <use xlink:href="#DejaVuSans-74" x="686.677734"/>
     <use xlink:href="#DejaVuSans-61" x="725.886719"/>
    </g>
   </g>
   <g id="text_15">
    <!-- 24 -->
    <g transform="translate(1878.516841 1399.465398)scale(0.16 -0.16)">
     <use xlink:href="#DejaVuSans-32"/>
     <use xlink:href="#DejaVuSans-34" x="63.623047"/>
    </g>
    <!-- 8% -->
    <g transform="translate(1876.005591 1417.381898)scale(0.16 -0.16)">
     <defs>
      <path id="DejaVuSans-38" d="M 2034 2216 
Q 1584 2216 1326 1975 
Q 1069 1734 1069 1313 
Q 1069 891 1326 650 
Q 1584 409 2034 409 
Q 2484 409 2743 651 
Q 3003 894 3003 1313 
Q 3003 1734 2745 1975 
Q 2488 2216 2034 2216 
z
M 1403 2484 
Q 997 2584 770 2862 
Q 544 3141 544 3541 
Q 544 4100 942 4425 
Q 1341 4750 2034 4750 
Q 2731 4750 3128 4425 
Q 3525 4100 3525 3541 
Q 3525 3141 3298 2862 
Q 3072 2584 2669 2484 
Q 3125 2378 3379 2068 
Q 3634 1759 3634 1313 
Q 3634 634 3220 271 
Q 2806 -91 2034 -91 
Q 1263 -91 848 271 
Q 434 634 434 1313 
Q 434 1759 690 2068 
Q 947 2378 1403 2484 
z
M 1172 3481 
Q 1172 3119 1398 2916 
Q 1625 2713 2034 2713 
Q 2441 2713 2670 2916 
Q 2900 3119 2900 3481 
Q 2900 3844 2670 4047 
Q 2441 4250 2034 4250 
Q 1625 4250 1398 4047 
Q 1172 3844 1172 3481 
z
" transform="scale(0.015625)"/>
     </defs>
     <use xlink:href="#DejaVuSans-38"/>
     <use xlink:href="#DejaVuSans-25" x="63.623047"/>
    </g>
   </g>
   <g id="text_16">
    <!-- Amoebozoa -->
    <g transform="translate(1978.205241 1314.255148)scale(0.16 -0.16)">
     <defs>
      <path id="DejaVuSans-62" d="M 3116 1747 
Q 3116 2381 2855 2742 
Q 2594 3103 2138 3103 
Q 1681 3103 1420 2742 
Q 1159 2381 1159 1747 
Q 1159 1113 1420 752 
Q 1681 391 2138 391 
Q 2594 391 2855 752 
Q 3116 1113 3116 1747 
z
M 1159 2969 
Q 1341 3281 1617 3432 
Q 1894 3584 2278 3584 
Q 2916 3584 3314 3078 
Q 3713 2572 3713 1747 
Q 3713 922 3314 415 
Q 2916 -91 2278 -91 
Q 1894 -91 1617 61 
Q 1341 213 1159 525 
L 1159 0 
L 581 0 
L 581 4863 
L 1159 4863 
L 1159 2969 
z
" transform="scale(0.015625)"/>
      <path id="DejaVuSans-7a" d="M 353 3500 
L 3084 3500 
L 3084 2975 
L 922 459 
L 3084 459 
L 3084 0 
L 275 0 
L 275 525 
L 2438 3041 
L 353 3041 
L 353 3500 
z
" transform="scale(0.015625)"/>
     </defs>
     <use xlink:href="#DejaVuSans-41"/>
     <use xlink:href="#DejaVuSans-6d" x="68.408203"/>
     <use xlink:href="#DejaVuSans-6f" x="165.820312"/>
     <use xlink:href="#DejaVuSans-65" x="227.001953"/>
     <use xlink:href="#DejaVuSans-62" x="288.525391"/>
     <use xlink:href="#DejaVuSans-6f" x="352.001953"/>
     <use xlink:href="#DejaVuSans-7a" x="413.183594"/>
     <use xlink:href="#DejaVuSans-6f" x="465.673828"/>
     <use xlink:href="#DejaVuSans-61" x="526.855469"/>
    </g>
   </g>
   <g id="text_17">
    <!-- 1 -->
    <g transform="translate(1869.377714 1364.460467)scale(0.16 -0.16)">
     <use xlink:href="#DejaVuSans-31"/>
    </g>
    <!-- 0% -->
    <g transform="translate(1861.776464 1382.376967)scale(0.16 -0.16)">
     <use xlink:href="#DejaVuSans-30"/>
     <use xlink:href="#DejaVuSans-25" x="63.623047"/>
    </g>
   </g>
   <g id="text_18">
    <!-- Aquificota -->
    <g transform="translate(1973.960637 1307.079648)scale(0.16 -0.16)">
     <defs>
      <path id="DejaVuSans-71" d="M 947 1747 
Q 947 1113 1208 752 
Q 1469 391 1925 391 
Q 2381 391 2643 752 
Q 2906 1113 2906 1747 
Q 2906 2381 2643 2742 
Q 2381 3103 1925 3103 
Q 1469 3103 1208 2742 
Q 947 2381 947 1747 
z
M 2906 525 
Q 2725 213 2448 61 
Q 2172 -91 1784 -91 
Q 1150 -91 751 415 
Q 353 922 353 1747 
Q 353 2572 751 3078 
Q 1150 3584 1784 3584 
Q 2172 3584 2448 3432 
Q 2725 3281 2906 2969 
L 2906 3500 
L 3481 3500 
L 3481 -1331 
L 2906 -1331 
L 2906 525 
z
" transform="scale(0.015625)"/>
      <path id="DejaVuSans-66" d="M 2375 4863 
L 2375 4384 
L 1825 4384 
Q 1516 4384 1395 4259 
Q 1275 4134 1275 3809 
L 1275 3500 
L 2222 3500 
L 2222 3053 
L 1275 3053 
L 1275 0 
L 697 0 
L 697 3053 
L 147 3053 
L 147 3500 
L 697 3500 
L 697 3744 
Q 697 4328 969 4595 
Q 1241 4863 1831 4863 
L 2375 4863 
z
" transform="scale(0.015625)"/>
     </defs>
     <use xlink:href="#DejaVuSans-41"/>
     <use xlink:href="#DejaVuSans-71" x="66.658203"/>
     <use xlink:href="#DejaVuSans-75" x="130.134766"/>
     <use xlink:href="#DejaVuSans-69" x="193.513672"/>
     <use xlink:href="#DejaVuSans-66" x="221.296875"/>
     <use xlink:href="#DejaVuSans-69" x="256.501953"/>
     <use xlink:href="#DejaVuSans-63" x="284.285156"/>
     <use xlink:href="#DejaVuSans-6f" x="339.265625"/>
     <use xlink:href="#DejaVuSans-74" x="400.447266"/>
     <use xlink:href="#DejaVuSans-61" x="439.65625"/>
    </g>
   </g>
   <g id="text_19">
    <!-- 2 -->
    <g transform="translate(1867.062475 1360.546558)scale(0.16 -0.16)">
     <use xlink:href="#DejaVuSans-32"/>
    </g>
    <!-- 1% -->
    <g transform="translate(1859.461225 1378.463058)scale(0.16 -0.16)">
     <use xlink:href="#DejaVuSans-31"/>
     <use xlink:href="#DejaVuSans-25" x="63.623047"/>
    </g>
   </g>
   <g id="text_20">
    <!-- Ascomycota -->
    <g transform="translate(1915.64787 1240.497936)scale(0.16 -0.16)">
     <use xlink:href="#DejaVuSans-41"/>
     <use xlink:href="#DejaVuSans-73" x="68.408203"/>
     <use xlink:href="#DejaVuSans-63" x="120.507812"/>
     <use xlink:href="#DejaVuSans-6f" x="175.488281"/>
     <use xlink:href="#DejaVuSans-6d" x="236.669922"/>
     <use xlink:href="#DejaVuSans-79" x="334.082031"/>
     <use xlink:href="#DejaVuSans-63" x="393.261719"/>
     <use xlink:href="#DejaVuSans-6f" x="448.242188"/>
     <use xlink:href="#DejaVuSans-74" x="509.423828"/>
     <use xlink:href="#DejaVuSans-61" x="548.632812"/>
    </g>
   </g>
   <g id="text_21">
    <!-- 30 -->
    <g transform="translate(1830.165511 1324.229261)scale(0.16 -0.16)">
     <use xlink:href="#DejaVuSans-33"/>
     <use xlink:href="#DejaVuSans-30" x="63.623047"/>
    </g>
    <!-- 10% -->
    <g transform="translate(1822.564261 1342.145761)scale(0.16 -0.16)">
     <use xlink:href="#DejaVuSans-31"/>
     <use xlink:href="#DejaVuSans-30" x="63.623047"/>
     <use xlink:href="#DejaVuSans-25" x="127.246094"/>
    </g>
   </g>
   <g id="text_22">
    <!-- Bacillota -->
    <g transform="translate(1762.48389 1181.982449)scale(0.16 -0.16)">
     <use xlink:href="#DejaVuSans-42"/>
     <use xlink:href="#DejaVuSans-61" x="68.603516"/>
     <use xlink:href="#DejaVuSans-63" x="129.882812"/>
     <use xlink:href="#DejaVuSans-69" x="184.863281"/>
     <use xlink:href="#DejaVuSans-6c" x="212.646484"/>
     <use xlink:href="#DejaVuSans-6c" x="240.429688"/>
     <use xlink:href="#DejaVuSans-6f" x="268.212891"/>
     <use xlink:href="#DejaVuSans-74" x="329.394531"/>
     <use xlink:href="#DejaVuSans-61" x="368.603516"/>
    </g>
   </g>
   <g id="text_23">
    <!-- 30 -->
    <g transform="translate(1746.621522 1292.311722)scale(0.16 -0.16)">
     <use xlink:href="#DejaVuSans-33"/>
     <use xlink:href="#DejaVuSans-30" x="63.623047"/>
    </g>
    <!-- 10% -->
    <g transform="translate(1739.020272 1310.228222)scale(0.16 -0.16)">
     <use xlink:href="#DejaVuSans-31"/>
     <use xlink:href="#DejaVuSans-30" x="63.623047"/>
     <use xlink:href="#DejaVuSans-25" x="127.246094"/>
    </g>
   </g>
   <g id="text_24">
    <!-- Bacteroidota -->
    <g transform="translate(1556.644205 1198.008132)scale(0.16 -0.16)">
     <defs>
      <path id="DejaVuSans-64" d="M 2906 2969 
L 2906 4863 
L 3481 4863 
L 3481 0 
L 2906 0 
L 2906 525 
Q 2725 213 2448 61 
Q 2172 -91 1784 -91 
Q 1150 -91 751 415 
Q 353 922 353 1747 
Q 353 2572 751 3078 
Q 1150 3584 1784 3584 
Q 2172 3584 2448 3432 
Q 2725 3281 2906 2969 
z
M 947 1747 
Q 947 1113 1208 752 
Q 1469 391 1925 391 
Q 2381 391 2643 752 
Q 2906 1113 2906 1747 
Q 2906 2381 2643 2742 
Q 2381 3103 1925 3103 
Q 1469 3103 1208 2742 
Q 947 2381 947 1747 
z
" transform="scale(0.015625)"/>
     </defs>
     <use xlink:href="#DejaVuSans-42"/>
     <use xlink:href="#DejaVuSans-61" x="68.603516"/>
     <use xlink:href="#DejaVuSans-63" x="129.882812"/>
     <use xlink:href="#DejaVuSans-74" x="184.863281"/>
     <use xlink:href="#DejaVuSans-65" x="224.072266"/>
     <use xlink:href="#DejaVuSans-72" x="285.595703"/>
     <use xlink:href="#DejaVuSans-6f" x="324.458984"/>
     <use xlink:href="#DejaVuSans-69" x="385.640625"/>
     <use xlink:href="#DejaVuSans-64" x="413.423828"/>
     <use xlink:href="#DejaVuSans-6f" x="476.900391"/>
     <use xlink:href="#DejaVuSans-74" x="538.082031"/>
     <use xlink:href="#DejaVuSans-61" x="577.291016"/>
    </g>
   </g>
   <g id="text_25">
    <!-- 8 -->
    <g transform="translate(1695.167149 1301.053004)scale(0.16 -0.16)">
     <use xlink:href="#DejaVuSans-38"/>
    </g>
    <!-- 3% -->
    <g transform="translate(1687.565899 1318.969504)scale(0.16 -0.16)">
     <use xlink:href="#DejaVuSans-33"/>
     <use xlink:href="#DejaVuSans-25" x="63.623047"/>
    </g>
   </g>
   <g id="text_26">
    <!-- Basidiomycota -->
    <g transform="translate(1477.654041 1232.025322)scale(0.16 -0.16)">
     <use xlink:href="#DejaVuSans-42"/>
     <use xlink:href="#DejaVuSans-61" x="68.603516"/>
     <use xlink:href="#DejaVuSans-73" x="129.882812"/>
     <use xlink:href="#DejaVuSans-69" x="181.982422"/>
     <use xlink:href="#DejaVuSans-64" x="209.765625"/>
     <use xlink:href="#DejaVuSans-69" x="273.242188"/>
     <use xlink:href="#DejaVuSans-6f" x="301.025391"/>
     <use xlink:href="#DejaVuSans-6d" x="362.207031"/>
     <use xlink:href="#DejaVuSans-79" x="459.619141"/>
     <use xlink:href="#DejaVuSans-63" x="518.798828"/>
     <use xlink:href="#DejaVuSans-6f" x="573.779297"/>
     <use xlink:href="#DejaVuSans-74" x="634.960938"/>
     <use xlink:href="#DejaVuSans-61" x="674.169922"/>
    </g>
   </g>
   <g id="text_27">
    <!-- 18 -->
    <g transform="translate(1655.44615 1319.607835)scale(0.16 -0.16)">
     <use xlink:href="#DejaVuSans-31"/>
     <use xlink:href="#DejaVuSans-38" x="63.623047"/>
    </g>
    <!-- 6% -->
    <g transform="translate(1652.9349 1337.524335)scale(0.16 -0.16)">
     <use xlink:href="#DejaVuSans-36"/>
     <use xlink:href="#DejaVuSans-25" x="63.623047"/>
    </g>
   </g>
   <g id="text_28">
    <!-- Blastocladiomycota -->
    <g transform="translate(1399.258189 1267.173365)scale(0.16 -0.16)">
     <use xlink:href="#DejaVuSans-42"/>
     <use xlink:href="#DejaVuSans-6c" x="68.603516"/>
     <use xlink:href="#DejaVuSans-61" x="96.386719"/>
     <use xlink:href="#DejaVuSans-73" x="157.666016"/>
     <use xlink:href="#DejaVuSans-74" x="209.765625"/>
     <use xlink:href="#DejaVuSans-6f" x="248.974609"/>
     <use xlink:href="#DejaVuSans-63" x="310.15625"/>
     <use xlink:href="#DejaVuSans-6c" x="365.136719"/>
     <use xlink:href="#DejaVuSans-61" x="392.919922"/>
     <use xlink:href="#DejaVuSans-64" x="454.199219"/>
     <use xlink:href="#DejaVuSans-69" x="517.675781"/>
     <use xlink:href="#DejaVuSans-6f" x="545.458984"/>
     <use xlink:href="#DejaVuSans-6d" x="606.640625"/>
     <use xlink:href="#DejaVuSans-79" x="704.052734"/>
     <use xlink:href="#DejaVuSans-63" x="763.232422"/>
     <use xlink:href="#DejaVuSans-6f" x="818.212891"/>
     <use xlink:href="#DejaVuSans-74" x="879.394531"/>
     <use xlink:href="#DejaVuSans-61" x="918.603516"/>
    </g>
   </g>
   <g id="text_29">
    <!-- 1 -->
    <g transform="translate(1639.107503 1338.779495)scale(0.16 -0.16)">
     <use xlink:href="#DejaVuSans-31"/>
    </g>
    <!-- 0% -->
    <g transform="translate(1631.506253 1356.695995)scale(0.16 -0.16)">
     <use xlink:href="#DejaVuSans-30"/>
     <use xlink:href="#DejaVuSans-25" x="63.623047"/>
    </g>
   </g>
   <g id="text_30">
    <!-- Campylobacterota -->
    <g transform="translate(1403.129818 1273.415898)scale(0.16 -0.16)">
     <defs>
      <path id="DejaVuSans-43" d="M 4122 4306 
L 4122 3641 
Q 3803 3938 3442 4084 
Q 3081 4231 2675 4231 
Q 1875 4231 1450 3742 
Q 1025 3253 1025 2328 
Q 1025 1406 1450 917 
Q 1875 428 2675 428 
Q 3081 428 3442 575 
Q 3803 722 4122 1019 
L 4122 359 
Q 3791 134 3420 21 
Q 3050 -91 2638 -91 
Q 1578 -91 968 557 
Q 359 1206 359 2328 
Q 359 3453 968 4101 
Q 1578 4750 2638 4750 
Q 3056 4750 3426 4639 
Q 3797 4528 4122 4306 
z
" transform="scale(0.015625)"/>
      <path id="DejaVuSans-70" d="M 1159 525 
L 1159 -1331 
L 581 -1331 
L 581 3500 
L 1159 3500 
L 1159 2969 
Q 1341 3281 1617 3432 
Q 1894 3584 2278 3584 
Q 2916 3584 3314 3078 
Q 3713 2572 3713 1747 
Q 3713 922 3314 415 
Q 2916 -91 2278 -91 
Q 1894 -91 1617 61 
Q 1341 213 1159 525 
z
M 3116 1747 
Q 3116 2381 2855 2742 
Q 2594 3103 2138 3103 
Q 1681 3103 1420 2742 
Q 1159 2381 1159 1747 
Q 1159 1113 1420 752 
Q 1681 391 2138 391 
Q 2594 391 2855 752 
Q 3116 1113 3116 1747 
z
" transform="scale(0.015625)"/>
     </defs>
     <use xlink:href="#DejaVuSans-43"/>
     <use xlink:href="#DejaVuSans-61" x="69.824219"/>
     <use xlink:href="#DejaVuSans-6d" x="131.103516"/>
     <use xlink:href="#DejaVuSans-70" x="228.515625"/>
     <use xlink:href="#DejaVuSans-79" x="291.992188"/>
     <use xlink:href="#DejaVuSans-6c" x="351.171875"/>
     <use xlink:href="#DejaVuSans-6f" x="378.955078"/>
     <use xlink:href="#DejaVuSans-62" x="440.136719"/>
     <use xlink:href="#DejaVuSans-61" x="503.613281"/>
     <use xlink:href="#DejaVuSans-63" x="564.892578"/>
     <use xlink:href="#DejaVuSans-74" x="619.873047"/>
     <use xlink:href="#DejaVuSans-65" x="659.082031"/>
     <use xlink:href="#DejaVuSans-72" x="720.605469"/>
     <use xlink:href="#DejaVuSans-6f" x="759.46875"/>
     <use xlink:href="#DejaVuSans-74" x="820.650391"/>
     <use xlink:href="#DejaVuSans-61" x="859.859375"/>
    </g>
   </g>
   <g id="text_31">
    <!-- 2 -->
    <g transform="translate(1636.093392 1342.184513)scale(0.16 -0.16)">
     <use xlink:href="#DejaVuSans-32"/>
    </g>
    <!-- 1% -->
    <g transform="translate(1628.492142 1360.101013)scale(0.16 -0.16)">
     <use xlink:href="#DejaVuSans-31"/>
     <use xlink:href="#DejaVuSans-25" x="63.623047"/>
    </g>
   </g>
   <g id="text_32">
    <!-- Chlorophyta -->
    <g transform="translate(1447.792293 1279.830613)scale(0.16 -0.16)">
     <use xlink:href="#DejaVuSans-43"/>
     <use xlink:href="#DejaVuSans-68" x="69.824219"/>
     <use xlink:href="#DejaVuSans-6c" x="133.203125"/>
     <use xlink:href="#DejaVuSans-6f" x="160.986328"/>
     <use xlink:href="#DejaVuSans-72" x="222.167969"/>
     <use xlink:href="#DejaVuSans-6f" x="261.03125"/>
     <use xlink:href="#DejaVuSans-70" x="322.212891"/>
     <use xlink:href="#DejaVuSans-68" x="385.689453"/>
     <use xlink:href="#DejaVuSans-79" x="449.068359"/>
     <use xlink:href="#DejaVuSans-74" x="508.248047"/>
     <use xlink:href="#DejaVuSans-61" x="547.457031"/>
    </g>
   </g>
   <g id="text_33">
    <!-- 1 -->
    <g transform="translate(1633.188833 1345.683448)scale(0.16 -0.16)">
     <use xlink:href="#DejaVuSans-31"/>
    </g>
    <!-- 0% -->
    <g transform="translate(1625.587583 1363.599948)scale(0.16 -0.16)">
     <use xlink:href="#DejaVuSans-30"/>
     <use xlink:href="#DejaVuSans-25" x="63.623047"/>
    </g>
   </g>
   <g id="text_34">
    <!-- Cyanophyta -->
    <g transform="translate(1435.791748 1297.728648)scale(0.16 -0.16)">
     <use xlink:href="#DejaVuSans-43"/>
     <use xlink:href="#DejaVuSans-79" x="69.824219"/>
     <use xlink:href="#DejaVuSans-61" x="129.003906"/>
     <use xlink:href="#DejaVuSans-6e" x="190.283203"/>
     <use xlink:href="#DejaVuSans-6f" x="253.662109"/>
     <use xlink:href="#DejaVuSans-70" x="314.84375"/>
     <use xlink:href="#DejaVuSans-68" x="378.320312"/>
     <use xlink:href="#DejaVuSans-79" x="441.699219"/>
     <use xlink:href="#DejaVuSans-74" x="500.878906"/>
     <use xlink:href="#DejaVuSans-61" x="540.087891"/>
    </g>
   </g>
   <g id="text_35">
    <!-- 7 -->
    <g transform="translate(1626.000809 1355.446012)scale(0.16 -0.16)">
     <use xlink:href="#DejaVuSans-37"/>
    </g>
    <!-- 2% -->
    <g transform="translate(1618.399559 1373.362512)scale(0.16 -0.16)">
     <use xlink:href="#DejaVuSans-32"/>
     <use xlink:href="#DejaVuSans-25" x="63.623047"/>
    </g>
   </g>
   <g id="text_36">
    <!-- Deinococcota -->
    <g transform="translate(1407.868827 1324.025078)scale(0.16 -0.16)">
     <use xlink:href="#DejaVuSans-44"/>
     <use xlink:href="#DejaVuSans-65" x="77.001953"/>
     <use xlink:href="#DejaVuSans-69" x="138.525391"/>
     <use xlink:href="#DejaVuSans-6e" x="166.308594"/>
     <use xlink:href="#DejaVuSans-6f" x="229.6875"/>
     <use xlink:href="#DejaVuSans-63" x="290.869141"/>
     <use xlink:href="#DejaVuSans-6f" x="345.849609"/>
     <use xlink:href="#DejaVuSans-63" x="407.03125"/>
     <use xlink:href="#DejaVuSans-63" x="462.011719"/>
     <use xlink:href="#DejaVuSans-6f" x="516.992188"/>
     <use xlink:href="#DejaVuSans-74" x="578.173828"/>
     <use xlink:href="#DejaVuSans-61" x="617.382812"/>
    </g>
   </g>
   <g id="text_37">
    <!-- 4 -->
    <g transform="translate(1617.516033 1369.78952)scale(0.16 -0.16)">
     <use xlink:href="#DejaVuSans-34"/>
    </g>
    <!-- 1% -->
    <g transform="translate(1609.914783 1387.70602)scale(0.16 -0.16)">
     <use xlink:href="#DejaVuSans-31"/>
     <use xlink:href="#DejaVuSans-25" x="63.623047"/>
    </g>
   </g>
   <g id="text_38">
    <!-- Euryarchaeota -->
    <g transform="translate(1371.006507 1427.751619)scale(0.16 -0.16)">
     <use xlink:href="#DejaVuSans-45"/>
     <use xlink:href="#DejaVuSans-75" x="63.183594"/>
     <use xlink:href="#DejaVuSans-72" x="126.5625"/>
     <use xlink:href="#DejaVuSans-79" x="167.675781"/>
     <use xlink:href="#DejaVuSans-61" x="226.855469"/>
     <use xlink:href="#DejaVuSans-72" x="288.134766"/>
     <use xlink:href="#DejaVuSans-63" x="326.998047"/>
     <use xlink:href="#DejaVuSans-68" x="381.978516"/>
     <use xlink:href="#DejaVuSans-61" x="445.357422"/>
     <use xlink:href="#DejaVuSans-65" x="506.636719"/>
     <use xlink:href="#DejaVuSans-6f" x="568.160156"/>
     <use xlink:href="#DejaVuSans-74" x="629.341797"/>
     <use xlink:href="#DejaVuSans-61" x="668.550781"/>
    </g>
   </g>
   <g id="text_39">
    <!-- 35 -->
    <g transform="translate(1596.783859 1426.367633)scale(0.16 -0.16)">
     <use xlink:href="#DejaVuSans-33"/>
     <use xlink:href="#DejaVuSans-35" x="63.623047"/>
    </g>
    <!-- 12% -->
    <g transform="translate(1589.182609 1444.284133)scale(0.16 -0.16)">
     <use xlink:href="#DejaVuSans-31"/>
     <use xlink:href="#DejaVuSans-32" x="63.623047"/>
     <use xlink:href="#DejaVuSans-25" x="127.246094"/>
    </g>
   </g>
   <g id="text_40">
    <!-- Firmicutes -->
    <g transform="translate(1432.993454 1562.328063)scale(0.16 -0.16)">
     <defs>
      <path id="DejaVuSans-46" d="M 628 4666 
L 3309 4666 
L 3309 4134 
L 1259 4134 
L 1259 2759 
L 3109 2759 
L 3109 2228 
L 1259 2228 
L 1259 0 
L 628 0 
L 628 4666 
z
" transform="scale(0.015625)"/>
     </defs>
     <use xlink:href="#DejaVuSans-46"/>
     <use xlink:href="#DejaVuSans-69" x="50.269531"/>
     <use xlink:href="#DejaVuSans-72" x="78.052734"/>
     <use xlink:href="#DejaVuSans-6d" x="117.416016"/>
     <use xlink:href="#DejaVuSans-69" x="214.828125"/>
     <use xlink:href="#DejaVuSans-63" x="242.611328"/>
     <use xlink:href="#DejaVuSans-75" x="297.591797"/>
     <use xlink:href="#DejaVuSans-74" x="360.970703"/>
     <use xlink:href="#DejaVuSans-65" x="400.179688"/>
     <use xlink:href="#DejaVuSans-73" x="461.703125"/>
    </g>
   </g>
   <g id="text_41">
    <!-- 15 -->
    <g transform="translate(1611.738557 1499.772966)scale(0.16 -0.16)">
     <use xlink:href="#DejaVuSans-31"/>
     <use xlink:href="#DejaVuSans-35" x="63.623047"/>
    </g>
    <!-- 5% -->
    <g transform="translate(1609.227307 1517.689466)scale(0.16 -0.16)">
     <use xlink:href="#DejaVuSans-35"/>
     <use xlink:href="#DejaVuSans-25" x="63.623047"/>
    </g>
   </g>
   <g id="text_42">
    <!-- Mucoromycota -->
    <g transform="translate(1426.932284 1608.999377)scale(0.16 -0.16)">
     <defs>
      <path id="DejaVuSans-4d" d="M 628 4666 
L 1569 4666 
L 2759 1491 
L 3956 4666 
L 4897 4666 
L 4897 0 
L 4281 0 
L 4281 4097 
L 3078 897 
L 2444 897 
L 1241 4097 
L 1241 0 
L 628 0 
L 628 4666 
z
" transform="scale(0.015625)"/>
     </defs>
     <use xlink:href="#DejaVuSans-4d"/>
     <use xlink:href="#DejaVuSans-75" x="86.279297"/>
     <use xlink:href="#DejaVuSans-63" x="149.658203"/>
     <use xlink:href="#DejaVuSans-6f" x="204.638672"/>
     <use xlink:href="#DejaVuSans-72" x="265.820312"/>
     <use xlink:href="#DejaVuSans-6f" x="304.683594"/>
     <use xlink:href="#DejaVuSans-6d" x="365.865234"/>
     <use xlink:href="#DejaVuSans-79" x="463.277344"/>
     <use xlink:href="#DejaVuSans-63" x="522.457031"/>
     <use xlink:href="#DejaVuSans-6f" x="577.4375"/>
     <use xlink:href="#DejaVuSans-74" x="638.619141"/>
     <use xlink:href="#DejaVuSans-61" x="677.828125"/>
    </g>
   </g>
   <g id="text_43">
    <!-- 5 -->
    <g transform="translate(1633.188828 1525.230047)scale(0.16 -0.16)">
     <use xlink:href="#DejaVuSans-35"/>
    </g>
    <!-- 2% -->
    <g transform="translate(1625.587578 1543.146547)scale(0.16 -0.16)">
     <use xlink:href="#DejaVuSans-32"/>
     <use xlink:href="#DejaVuSans-25" x="63.623047"/>
    </g>
   </g>
   <g id="text_44">
    <!-- Pseudomonadota -->
    <g transform="translate(1827.992613 1695.296594)scale(0.16 -0.16)">
     <use xlink:href="#DejaVuSans-50"/>
     <use xlink:href="#DejaVuSans-73" x="58.552734"/>
     <use xlink:href="#DejaVuSans-65" x="110.652344"/>
     <use xlink:href="#DejaVuSans-75" x="172.175781"/>
     <use xlink:href="#DejaVuSans-64" x="235.554688"/>
     <use xlink:href="#DejaVuSans-6f" x="299.03125"/>
     <use xlink:href="#DejaVuSans-6d" x="360.212891"/>
     <use xlink:href="#DejaVuSans-6f" x="457.625"/>
     <use xlink:href="#DejaVuSans-6e" x="518.806641"/>
     <use xlink:href="#DejaVuSans-61" x="582.185547"/>
     <use xlink:href="#DejaVuSans-64" x="643.464844"/>
     <use xlink:href="#DejaVuSans-6f" x="706.941406"/>
     <use xlink:href="#DejaVuSans-74" x="768.123047"/>
     <use xlink:href="#DejaVuSans-61" x="807.332031"/>
    </g>
   </g>
   <g id="text_45">
    <!-- 108 -->
    <g transform="translate(1777.263553 1572.301256)scale(0.16 -0.16)">
     <use xlink:href="#DejaVuSans-31"/>
     <use xlink:href="#DejaVuSans-30" x="63.623047"/>
     <use xlink:href="#DejaVuSans-38" x="127.246094"/>
    </g>
    <!-- 36% -->
    <g transform="translate(1774.752303 1590.217756)scale(0.16 -0.16)">
     <use xlink:href="#DejaVuSans-33"/>
     <use xlink:href="#DejaVuSans-36" x="63.623047"/>
     <use xlink:href="#DejaVuSans-25" x="127.246094"/>
    </g>
   </g>
   <g id="text_46">
    <!-- Rhodothermota -->
    <g transform="translate(2011.523155 1469.389077)scale(0.16 -0.16)">
     <defs>
      <path id="DejaVuSans-52" d="M 2841 2188 
Q 3044 2119 3236 1894 
Q 3428 1669 3622 1275 
L 4263 0 
L 3584 0 
L 2988 1197 
Q 2756 1666 2539 1819 
Q 2322 1972 1947 1972 
L 1259 1972 
L 1259 0 
L 628 0 
L 628 4666 
L 2053 4666 
Q 2853 4666 3247 4331 
Q 3641 3997 3641 3322 
Q 3641 2881 3436 2590 
Q 3231 2300 2841 2188 
z
M 1259 4147 
L 1259 2491 
L 2053 2491 
Q 2509 2491 2742 2702 
Q 2975 2913 2975 3322 
Q 2975 3731 2742 3939 
Q 2509 4147 2053 4147 
L 1259 4147 
z
" transform="scale(0.015625)"/>
     </defs>
     <use xlink:href="#DejaVuSans-52"/>
     <use xlink:href="#DejaVuSans-68" x="69.482422"/>
     <use xlink:href="#DejaVuSans-6f" x="132.861328"/>
     <use xlink:href="#DejaVuSans-64" x="194.042969"/>
     <use xlink:href="#DejaVuSans-6f" x="257.519531"/>
     <use xlink:href="#DejaVuSans-74" x="318.701172"/>
     <use xlink:href="#DejaVuSans-68" x="357.910156"/>
     <use xlink:href="#DejaVuSans-65" x="421.289062"/>
     <use xlink:href="#DejaVuSans-72" x="482.8125"/>
     <use xlink:href="#DejaVuSans-6d" x="522.175781"/>
     <use xlink:href="#DejaVuSans-6f" x="619.587891"/>
     <use xlink:href="#DejaVuSans-74" x="680.769531"/>
     <use xlink:href="#DejaVuSans-61" x="719.978516"/>
    </g>
   </g>
   <g id="text_47">
    <!-- 3 -->
    <g transform="translate(1887.551121 1449.078974)scale(0.16 -0.16)">
     <use xlink:href="#DejaVuSans-33"/>
    </g>
    <!-- 1% -->
    <g transform="translate(1879.949871 1466.995474)scale(0.16 -0.16)">
     <use xlink:href="#DejaVuSans-31"/>
     <use xlink:href="#DejaVuSans-25" x="63.623047"/>
    </g>
   </g>
   <g id="text_48">
    <!-- Spirochaetes -->
    <g transform="translate(2012.345445 1458.303985)scale(0.16 -0.16)">
     <defs>
      <path id="DejaVuSans-53" d="M 3425 4513 
L 3425 3897 
Q 3066 4069 2747 4153 
Q 2428 4238 2131 4238 
Q 1616 4238 1336 4038 
Q 1056 3838 1056 3469 
Q 1056 3159 1242 3001 
Q 1428 2844 1947 2747 
L 2328 2669 
Q 3034 2534 3370 2195 
Q 3706 1856 3706 1288 
Q 3706 609 3251 259 
Q 2797 -91 1919 -91 
Q 1588 -91 1214 -16 
Q 841 59 441 206 
L 441 856 
Q 825 641 1194 531 
Q 1563 422 1919 422 
Q 2459 422 2753 634 
Q 3047 847 3047 1241 
Q 3047 1584 2836 1778 
Q 2625 1972 2144 2069 
L 1759 2144 
Q 1053 2284 737 2584 
Q 422 2884 422 3419 
Q 422 4038 858 4394 
Q 1294 4750 2059 4750 
Q 2388 4750 2728 4690 
Q 3069 4631 3425 4513 
z
" transform="scale(0.015625)"/>
     </defs>
     <use xlink:href="#DejaVuSans-53"/>
     <use xlink:href="#DejaVuSans-70" x="63.476562"/>
     <use xlink:href="#DejaVuSans-69" x="126.953125"/>
     <use xlink:href="#DejaVuSans-72" x="154.736328"/>
     <use xlink:href="#DejaVuSans-6f" x="193.599609"/>
     <use xlink:href="#DejaVuSans-63" x="254.78125"/>
     <use xlink:href="#DejaVuSans-68" x="309.761719"/>
     <use xlink:href="#DejaVuSans-61" x="373.140625"/>
     <use xlink:href="#DejaVuSans-65" x="434.419922"/>
     <use xlink:href="#DejaVuSans-74" x="495.943359"/>
     <use xlink:href="#DejaVuSans-65" x="535.152344"/>
     <use xlink:href="#DejaVuSans-73" x="596.675781"/>
    </g>
   </g>
   <g id="text_49">
    <!-- 1 -->
    <g transform="translate(1887.999643 1443.03256)scale(0.16 -0.16)">
     <use xlink:href="#DejaVuSans-31"/>
    </g>
    <!-- 0% -->
    <g transform="translate(1880.398393 1460.94906)scale(0.16 -0.16)">
     <use xlink:href="#DejaVuSans-30"/>
     <use xlink:href="#DejaVuSans-25" x="63.623047"/>
    </g>
   </g>
   <g id="text_50">
    <!-- Thermoproteota -->
    <g transform="translate(2012.654025 1449.972764)scale(0.16 -0.16)">
     <defs>
      <path id="DejaVuSans-54" d="M -19 4666 
L 3928 4666 
L 3928 4134 
L 2272 4134 
L 2272 0 
L 1638 0 
L 1638 4134 
L -19 4134 
L -19 4666 
z
" transform="scale(0.015625)"/>
     </defs>
     <use xlink:href="#DejaVuSans-54"/>
     <use xlink:href="#DejaVuSans-68" x="61.083984"/>
     <use xlink:href="#DejaVuSans-65" x="124.462891"/>
     <use xlink:href="#DejaVuSans-72" x="185.986328"/>
     <use xlink:href="#DejaVuSans-6d" x="225.349609"/>
     <use xlink:href="#DejaVuSans-6f" x="322.761719"/>
     <use xlink:href="#DejaVuSans-70" x="383.943359"/>
     <use xlink:href="#DejaVuSans-72" x="447.419922"/>
     <use xlink:href="#DejaVuSans-6f" x="486.283203"/>
     <use xlink:href="#DejaVuSans-74" x="547.464844"/>
     <use xlink:href="#DejaVuSans-65" x="586.673828"/>
     <use xlink:href="#DejaVuSans-6f" x="648.197266"/>
     <use xlink:href="#DejaVuSans-74" x="709.378906"/>
     <use xlink:href="#DejaVuSans-61" x="748.587891"/>
    </g>
   </g>
   <g id="text_51">
    <!-- 2 -->
    <g transform="translate(1888.16796 1438.488258)scale(0.16 -0.16)">
     <use xlink:href="#DejaVuSans-32"/>
    </g>
    <!-- 1% -->
    <g transform="translate(1880.56671 1456.404758)scale(0.16 -0.16)">
     <use xlink:href="#DejaVuSans-31"/>
     <use xlink:href="#DejaVuSans-25" x="63.623047"/>
    </g>
   </g>
  </g>
 </g>
</svg>
